<svg width="44" height="34" viewBox="0 0 44 34" fill="none" xmlns="http://www.w3.org/2000/svg">
<path d="M18.26 14.5489C18.26 14.6573 18.37 14.6573 18.37 14.7657C18.48 14.8741 18.48 14.8741 18.37 14.9825C18.26 14.8741 18.15 14.8741 18.04 15.0909L17.93 15.1993C17.93 14.9825 18.04 14.8741 18.04 14.7657C18.04 14.5489 17.82 14.6573 17.71 14.5489C17.93 14.3322 17.93 14.3322 17.82 14.1154C17.71 14.007 17.49 14.007 17.27 14.007C17.05 14.1154 16.83 14.2238 16.5 14.1154C16.39 14.1154 16.28 14.1154 16.17 14.1154C16.06 14.1154 15.95 14.1154 15.95 14.1154C15.84 13.8986 15.62 14.007 15.51 14.1154C15.4 14.2238 15.18 14.2238 15.18 14.007C15.07 14.007 14.96 14.1154 14.85 14.1154C14.74 14.1154 14.52 14.1154 14.41 14.1154C14.3 14.1154 14.3 14.007 14.19 14.007C14.08 14.007 13.2 14.007 13.09 13.8986C13.2 13.8986 13.31 13.8986 13.42 13.8986C13.31 13.8986 13.09 13.8986 12.98 13.8986C12.98 13.8986 12.98 13.8986 12.98 13.7902C13.09 13.7902 13.09 13.7902 13.2 13.7902C13.31 13.7902 13.42 13.7902 13.53 13.8986C13.64 13.8986 13.64 13.8986 13.75 13.8986C13.64 13.7902 13.64 13.7902 13.53 13.7902C13.42 13.7902 13.2 13.7902 13.09 13.7902C12.98 13.7902 12.98 13.7902 12.87 13.7902C12.87 13.7902 12.87 13.7902 12.98 13.7902L13.09 13.6818C13.09 13.465 13.2 13.465 13.31 13.5734C13.2 13.465 13.2 13.465 13.09 13.3566C13.2 13.3566 13.31 13.3566 13.31 13.3566C13.31 13.2482 13.31 13.2482 13.31 13.1399C13.42 13.1399 13.42 13.0315 13.42 13.0315C13.42 13.0315 13.42 13.1399 13.53 13.1399C13.75 13.0315 13.64 12.7063 13.86 12.7063C13.86 12.5979 13.86 12.4895 13.86 12.3811C13.86 12.2727 13.97 12.0559 14.08 11.9475H14.19C14.19 11.9475 14.19 11.9475 14.08 11.8392C14.19 11.8392 14.19 11.7308 14.3 11.7308C14.3 11.7308 14.3 11.8392 14.41 11.8392C14.52 11.8392 14.52 11.8392 14.63 11.8392C14.74 11.7308 14.85 11.7308 14.96 11.6224C14.96 11.6224 14.96 11.6224 14.96 11.514C14.96 11.4056 14.96 11.4056 14.96 11.2972C14.85 11.2972 14.74 11.1888 14.63 11.1888C14.63 11.1888 14.63 11.1888 14.63 11.0804C14.74 11.0804 14.85 11.0804 14.96 11.0804V10.972C14.96 10.972 14.96 10.972 14.85 10.8636C14.96 10.8636 14.96 10.7552 15.07 10.7552C14.96 10.6468 14.96 10.5385 15.07 10.4301L15.18 10.3217C15.29 10.2133 15.4 10.2133 15.4 10.1049C15.51 10.1049 15.51 9.99649 15.62 9.99649C15.84 9.99649 15.95 9.8881 16.17 9.8881C16.17 9.9965 16.17 10.1049 16.17 10.2133C16.28 10.2133 16.39 10.2133 16.5 10.2133C16.5 10.3217 16.61 10.4301 16.61 10.4301C16.72 10.3217 16.83 10.3217 17.05 10.2133C17.05 10.1049 17.05 9.9965 17.05 9.8881C17.16 9.9965 17.16 9.99649 17.16 9.99649C17.16 9.99649 17.16 9.8881 17.27 9.8881C17.27 9.9965 17.27 9.99649 17.27 9.99649C17.38 9.99649 17.49 9.9965 17.6 10.1049C17.71 9.77971 17.82 10.1049 17.93 10.1049C17.93 10.2133 17.82 10.3217 17.82 10.4301C17.93 10.4301 18.04 10.4301 18.04 10.4301L18.15 10.5385C18.26 10.5385 18.26 10.5385 18.37 10.4301C18.37 10.5385 18.26 10.5385 18.26 10.6468C18.37 10.8636 18.48 10.972 18.48 11.1888V11.0804C18.48 11.0804 18.48 11.1888 18.59 11.1888C18.59 11.0804 18.59 10.972 18.59 10.972L18.7 11.0804C18.7 10.972 18.7 10.8636 18.81 10.6468C18.92 10.7552 18.92 10.7552 18.92 10.7552L18.81 10.6468C18.59 10.4301 18.37 10.3217 18.37 10.1049C18.26 9.77971 18.26 9.67132 17.93 9.67132C17.93 9.56293 17.93 9.56293 17.93 9.45454C17.93 9.34614 17.93 9.34614 17.93 9.23775L18.04 9.34615C18.15 9.12936 18.15 9.34615 18.26 9.34615C18.37 9.23775 18.37 9.12936 18.48 8.91258C18.59 9.02097 18.7 9.02097 18.81 8.80419H18.92C19.03 8.91258 19.14 8.6958 19.14 8.6958C19.14 8.5874 19.14 8.47901 19.03 8.47901C19.03 8.37062 18.92 8.37062 18.81 8.26223C18.81 8.26223 18.81 8.15384 18.81 8.04545C18.92 8.04545 18.92 8.04545 18.92 8.04545C18.92 7.93705 18.92 7.82866 19.03 7.82866C19.14 7.72027 19.25 7.82866 19.25 7.93705L19.36 8.04545C19.36 7.93705 19.25 7.82866 19.25 7.82866C19.36 7.82866 19.47 7.93705 19.47 7.82866C19.69 7.72027 19.69 7.82866 19.69 8.04545C19.8 7.93705 19.91 7.93705 20.02 7.93705C20.02 8.15384 20.02 8.26223 19.8 8.37062C19.58 8.47901 19.58 8.6958 19.69 8.80419L19.8 8.91258C19.8 8.80419 19.8 8.80419 19.8 8.6958C19.8 8.5874 19.8 8.47901 19.69 8.37062C19.8 8.37062 19.8 8.37062 19.8 8.37062C19.91 8.47901 20.02 8.47901 20.13 8.37062C20.13 8.37062 20.24 8.37062 20.35 8.47901C20.35 8.47901 20.35 8.5874 20.35 8.6958C20.46 8.5874 20.57 8.5874 20.68 8.47901C20.79 8.26223 20.79 8.15384 20.57 8.04545C20.79 7.61188 21.01 7.61188 21.23 7.82866C21.34 7.82866 21.45 7.82866 21.56 7.82866C21.78 7.93705 21.78 7.93705 21.89 7.72027L22 7.61188C22 7.82866 22.11 7.72027 22.22 7.72027C22.44 7.82866 22.55 7.82866 22.55 7.50349C22.66 7.72027 22.77 7.72027 22.99 7.61188C23.1 7.82866 23.21 7.82866 23.43 7.72027C23.43 7.72027 23.43 7.61188 23.43 7.50349C23.54 7.50349 23.65 7.61188 23.65 7.61188C23.65 7.50349 23.65 7.50349 23.76 7.3951C23.87 7.50349 23.87 7.61188 23.98 7.72027C23.98 7.61188 23.98 7.50349 23.98 7.50349C23.98 7.50349 23.98 7.50349 24.09 7.50349C25.3 7.61188 25.3 7.93705 25.52 8.15384C25.52 8.26223 25.52 8.37062 25.52 8.47901C25.52 8.5874 25.41 8.6958 25.3 8.6958H25.41H25.52L25.41 8.80419C25.3 8.80419 25.3 8.80419 25.19 8.80419C25.19 8.91258 25.19 9.02097 25.19 9.23775C25.41 9.23775 25.52 9.02097 25.63 8.91258C25.74 8.80419 25.85 8.5874 26.07 8.6958C26.07 8.5874 26.07 8.5874 26.07 8.47901C26.18 8.47901 26.18 8.5874 26.18 8.5874C26.29 8.5874 26.18 8.26223 26.4 8.37062C26.4 8.26223 26.4 8.15384 26.4 8.04545C26.51 8.15384 26.51 8.26223 26.62 8.37062C26.84 8.15384 27.17 8.26223 27.17 8.47901C27.28 8.47901 27.39 8.47901 27.5 8.47901C27.5 8.47901 27.61 8.47901 27.61 8.5874C27.61 8.5874 27.61 8.5874 27.61 8.6958L27.5 8.80419C27.61 8.80419 27.61 8.80419 27.72 8.91258H27.83C27.72 9.02097 27.5 9.12936 27.39 9.34615L27.5 9.45454C27.28 9.56293 27.17 9.56293 27.06 9.67132C27.17 9.67132 27.17 9.67132 27.28 9.67132C27.28 9.67132 27.28 9.67132 27.28 9.77971C27.17 9.77971 26.95 9.77971 26.84 9.8881C26.95 9.8881 27.06 9.8881 27.17 9.8881C27.06 9.9965 27.06 9.99649 27.06 9.99649C27.17 10.1049 27.17 10.2133 27.28 10.3217C27.39 10.2133 27.39 10.1049 27.39 10.1049C27.83 10.2133 27.94 10.4301 28.05 10.7552C28.16 10.7552 28.16 10.7552 28.27 10.7552C28.38 10.8636 28.38 10.972 28.38 11.0804C28.49 11.0804 28.49 11.1888 28.6 11.1888C28.49 11.1888 28.49 11.2972 28.38 11.2972C28.49 11.4056 28.49 11.4056 28.6 11.4056C28.38 11.6224 28.16 11.6224 27.83 11.6224C27.5 11.6224 27.28 11.8392 27.28 12.1643C27.39 12.1643 27.39 12.1643 27.5 12.0559C27.39 12.1643 27.39 12.2727 27.28 12.3811C27.39 12.2727 27.5 12.1643 27.5 12.0559C27.5 12.1643 27.39 12.2727 27.39 12.3811C27.61 12.3811 27.72 12.0559 27.94 12.0559C27.94 12.2727 27.72 12.3811 27.83 12.5979H27.94C28.05 12.5979 28.05 12.5979 28.16 12.5979C28.05 12.5979 28.05 12.7063 27.94 12.7063C28.16 12.7063 28.27 12.8147 28.38 12.8147C28.49 12.8147 28.49 12.8147 28.6 12.7063C28.6 12.7063 28.6 12.5979 28.6 12.4895C28.49 12.3811 28.49 12.2727 28.6 12.1643C28.71 12.0559 28.71 12.0559 28.82 12.0559C28.93 12.0559 28.93 11.9475 28.93 11.8392V11.7308C29.04 11.7308 29.15 11.7308 29.15 11.7308C29.15 11.514 29.15 11.4056 29.15 11.1888C29.15 11.1888 29.26 11.2972 29.26 11.4056C29.26 11.2972 29.26 11.2972 29.26 11.1888C29.48 11.8392 29.48 11.8392 29.81 11.7308L29.7 11.8392C29.81 11.9475 30.03 12.1643 30.03 12.3811C30.03 12.5979 30.14 12.7063 30.25 12.8147C30.25 12.9231 30.36 12.9231 30.47 12.9231C30.47 12.8147 30.58 12.8147 30.58 12.7063C30.58 12.5979 30.58 12.4895 30.58 12.3811C30.69 12.4895 30.69 12.5979 30.8 12.5979C30.8 12.4895 30.8 12.3811 30.8 12.1643C30.91 12.1643 30.91 12.1643 31.02 12.1643C31.02 12.2727 31.02 12.2727 31.02 12.3811C31.24 12.3811 31.46 12.1643 31.68 12.2727H31.79C31.9 12.3811 32.01 12.5979 32.12 12.7063C32.23 12.8147 32.45 12.9231 32.56 12.8147C32.56 12.9231 32.45 13.0315 32.45 13.0315L32.56 13.1399C32.45 13.3566 32.45 13.3566 32.45 13.5734C32.45 13.6818 32.45 13.8986 32.56 14.007V14.1154C32.56 14.2238 32.45 14.3322 32.45 14.4406C32.45 14.5489 32.34 14.6573 32.45 14.6573C32.56 14.6573 32.56 14.7657 32.56 14.8741C32.56 14.8741 32.56 14.9825 32.67 14.9825C32.67 14.8741 32.67 14.8741 32.78 14.8741C32.89 14.8741 32.89 14.8741 33 14.8741V14.9825C33 15.0909 33 15.0909 33 15.1993V15.3077C32.89 15.4161 33 15.4161 33.11 15.5245C33.22 15.5245 33.33 15.6329 33.33 15.6329C33.22 15.7413 33.11 15.8496 33 15.958H33.11C33 16.0664 32.89 16.0664 32.89 16.1748C32.78 16.3916 32.67 16.2832 32.56 16.2832C32.45 16.2832 32.23 16.2832 32.12 16.2832C32.01 16.2832 31.9 16.2832 31.9 16.2832C31.79 16.1748 31.68 16.1748 31.57 16.2832H31.68L31.79 16.3916L31.68 16.5C31.57 16.5 31.46 16.5 31.35 16.3916C31.24 16.3916 31.13 16.2832 30.91 16.2832C30.69 16.2832 30.58 16.2832 30.36 16.2832C30.36 16.1748 30.36 16.1748 30.36 16.0664C30.25 16.0664 30.03 15.958 29.92 15.958C29.92 16.0664 29.92 16.1748 29.92 16.2832H30.03C30.03 16.3916 30.14 16.3916 30.14 16.5C30.03 16.5 29.92 16.5 29.81 16.5C29.81 16.7168 29.7 16.7168 29.48 16.7168C29.37 16.7168 29.15 16.7168 29.04 16.7168C28.93 16.7168 28.82 16.8252 28.82 16.9336C28.82 17.1503 29.15 17.1503 29.26 17.042C29.37 16.9336 29.48 16.8252 29.59 16.7168C29.59 16.7168 29.7 16.6084 29.81 16.6084C29.81 16.7168 29.81 16.7168 29.81 16.8252C29.92 16.7168 29.92 16.7168 30.03 16.6084C30.03 16.9336 29.59 16.9336 29.59 17.2587C29.7 17.2587 29.81 17.1503 29.92 17.1503C29.92 17.2587 29.81 17.2587 29.81 17.2587C29.92 17.2587 30.03 17.2587 30.14 17.1503C30.14 17.2587 30.03 17.2587 30.03 17.2587C29.92 17.2587 29.7 17.2587 29.59 17.2587C29.48 17.2587 29.37 17.1503 29.15 17.1503C28.93 17.2587 28.6 17.1503 28.38 17.042C28.27 16.9336 28.16 17.042 28.05 17.1503C28.16 17.1503 28.16 17.2587 28.27 17.2587C28.05 17.2587 27.83 17.2587 27.61 17.2587C27.61 17.1503 27.5 17.042 27.28 17.1503C27.17 17.1503 27.06 17.1503 26.95 17.042C27.06 17.042 27.06 16.9336 27.06 16.9336C26.95 16.8252 26.73 16.8252 26.62 16.7168C26.62 16.7168 26.62 16.7168 26.62 16.6084C26.73 16.6084 26.95 16.7168 27.06 16.7168V16.6084C27.17 16.7168 27.17 16.7168 27.28 16.8252C27.28 16.7168 27.39 16.6084 27.28 16.5C27.17 16.2832 26.95 16.2832 26.84 16.2832C26.73 16.2832 26.73 16.3916 26.62 16.3916C26.4 16.3916 26.18 16.3916 25.96 16.3916H25.85C25.74 16.2832 25.63 16.2832 25.52 16.3916H25.41V16.2832C25.41 16.2832 25.41 16.2832 25.52 16.1748C25.41 16.0664 25.3 16.0664 25.3 16.1748C25.19 16.2832 25.08 16.3916 24.97 16.3916C24.75 16.5 24.53 16.6084 24.42 16.8252C24.42 16.9336 24.42 16.9336 24.31 17.042C24.42 17.042 24.53 17.042 24.53 17.1503L24.64 17.2587C24.64 17.2587 24.64 17.3671 24.53 17.3671C24.31 17.2587 24.2 17.3671 24.09 17.5839C23.87 17.5839 23.87 17.6923 23.76 17.8007C23.65 18.0175 23.43 18.2343 23.21 18.2343C22.99 18.2343 22.77 18.3427 22.55 18.451C22.33 18.6678 22.11 18.8846 21.78 18.993C21.56 19.1014 21.23 19.2098 21.01 19.4266C20.68 19.6434 20.46 19.9685 20.46 20.2937C20.46 20.7273 20.57 21.1608 20.79 21.486C20.79 21.5944 20.9 21.5944 20.9 21.7028C20.9 22.028 21.23 22.1364 21.45 22.2448C21.78 22.3531 22.22 22.4615 22.66 22.5699C22.88 22.6783 22.99 22.5699 23.21 22.5699C23.43 22.5699 23.65 22.5699 23.76 22.5699C24.09 22.5699 24.42 22.5699 24.75 22.5699C24.97 22.5699 25.08 22.5699 25.3 22.5699C25.96 22.5699 26.62 22.6783 27.28 22.7867C28.16 22.7867 29.04 22.8951 29.92 22.8951C34.1 22.8951 38.28 22.8951 42.46 22.8951C42.57 22.8951 42.57 22.8951 42.68 22.8951C42.68 23.1119 42.68 23.2203 42.68 23.4371C28.38 23.4371 14.19 23.4371 0 23.4371C0 23.3287 0 23.3287 0 23.2203C0 22.7867 1.96695e-07 22.8951 0.33 22.8951C4.73 22.8951 9.13 22.8951 13.42 22.8951C13.86 22.8951 14.3 22.8951 14.63 22.7867C15.18 22.6783 15.84 22.6783 16.5 22.5699C16.61 22.5699 16.83 22.5699 16.83 22.3531C16.83 22.1364 16.94 22.1364 17.05 22.028C17.16 22.028 17.27 22.028 17.38 21.9196L17.49 21.8112C17.6 21.5944 17.71 21.3776 17.82 21.0524C17.93 21.0524 18.04 20.944 18.04 20.8357C18.15 20.5105 18.37 20.2937 18.59 20.1853C18.7 20.1853 18.81 20.0769 18.81 19.9685C18.92 19.8601 19.03 19.6434 18.92 19.4266C18.81 19.1014 18.92 18.993 19.03 18.6678C19.03 18.5594 19.14 18.451 19.14 18.451C19.14 18.1259 18.81 17.8007 18.48 17.8007C18.15 17.8007 17.82 17.9091 17.49 18.1259C17.27 18.2343 17.16 18.2343 17.05 18.1259C16.94 18.0175 16.83 18.0175 16.72 17.9091C16.61 17.8007 16.5 17.9091 16.28 17.9091C16.06 18.0175 15.84 18.0175 15.62 18.0175C15.51 18.0175 15.29 17.9091 15.18 17.8007C14.63 17.5839 14.19 17.2587 13.64 17.042C13.53 16.9336 13.31 16.9336 13.2 16.8252C12.98 16.8252 12.76 16.7168 12.54 16.7168C12.1 16.7168 11.77 16.6084 11.66 16.1748C11.66 16.0664 11.55 16.0664 11.44 16.1748C11.33 16.3916 11.11 16.5 10.78 16.2832C10.89 16.1748 10.89 16.0664 10.78 15.958C10.56 15.958 10.45 15.958 10.23 15.8496C10.01 15.7413 9.9 15.7413 9.68 15.6329C9.79 15.6329 9.9 15.5245 10.01 15.5245C10.23 15.5245 10.45 15.3077 10.67 15.4161C10.67 15.4161 10.78 15.4161 10.78 15.3077C10.89 15.1993 10.89 15.0909 10.89 14.9825C11.11 14.9825 11.11 14.9825 11.11 14.6573C11 14.3322 11.33 14.2238 11.44 14.007C11.44 14.1154 11.44 14.1154 11.44 14.2238C11.55 14.1154 11.55 14.007 11.66 13.8986C11.66 14.007 11.66 14.007 11.66 14.1154C11.88 14.007 11.99 14.007 12.1 14.2238C12.21 14.2238 12.21 14.1154 12.32 14.1154C12.32 14.2238 12.32 14.2238 12.32 14.3322C12.43 14.2238 12.43 14.1154 12.43 14.007C12.54 14.007 12.65 14.1154 12.76 14.1154C12.76 14.007 12.76 14.007 12.65 13.8986C12.76 14.007 12.87 14.007 12.98 14.1154C12.98 14.007 13.09 13.7902 13.09 13.6818C13.09 13.7902 13.09 13.7902 13.09 13.8986L13.2 13.7902C13.2 13.6818 13.42 13.6818 13.53 13.6818C13.53 13.6818 13.64 13.7902 13.64 13.8986V14.007C13.86 14.007 13.86 14.007 14.08 14.1154C14.3 14.2238 14.41 14.3322 14.63 14.3322C14.74 14.3322 14.85 14.4406 14.96 14.5489C15.18 14.8741 15.51 14.7657 15.73 14.5489C15.84 14.4406 15.84 14.4406 15.95 14.5489C16.06 14.6573 16.17 14.6573 16.28 14.6573C16.5 14.6573 16.72 14.7657 16.94 14.7657C16.94 14.7657 17.05 14.7657 17.05 14.8741C17.16 14.9825 17.16 14.9825 17.38 14.8741C17.49 15.0909 17.49 15.1993 17.6 15.4161C17.6 15.4161 17.6 15.4161 17.71 15.4161L17.6 15.3077L17.71 15.1993C17.93 15.3077 18.04 14.9825 18.26 14.9825C18.15 14.9825 18.15 14.9825 18.04 14.9825C17.93 14.9825 17.93 14.9825 17.82 14.9825C17.71 14.9825 17.6 14.8741 17.6 14.7657L17.71 14.6573C17.71 14.6573 17.71 14.7657 17.82 14.7657C17.82 14.7657 17.82 14.8741 17.93 14.8741H18.04C18.04 14.7657 18.04 14.7657 18.04 14.6573C18.15 14.6573 18.15 14.7657 18.26 14.7657C18.15 14.6573 18.15 14.5489 18.04 14.4406C18.04 14.4406 18.04 14.4406 18.04 14.3322C18.15 14.3322 18.26 14.4406 18.37 14.4406C18.26 14.3322 18.15 14.3322 18.04 14.2238C18.04 14.2238 18.04 14.1154 17.93 14.1154H18.04C18.15 14.2238 18.26 14.2238 18.37 14.3322C18.26 14.1154 18.04 13.8986 17.71 13.7902C17.49 13.7902 17.38 13.6818 17.27 13.5734C17.16 13.465 17.05 13.465 16.94 13.465C18.15 14.2238 18.15 14.4406 18.26 14.5489ZM18.59 17.5839H18.7C18.7 17.5839 18.7 17.4755 18.59 17.4755C18.59 17.4755 18.48 17.4755 18.37 17.4755C18.04 17.4755 17.71 17.3671 17.38 17.2587C17.27 17.1503 17.05 17.1503 16.94 17.1503C16.61 17.2587 16.17 17.2587 15.84 17.3671L15.73 17.4755C15.73 17.5839 15.84 17.6923 15.84 17.6923C16.06 17.8007 16.28 17.8007 16.39 17.9091C16.61 18.0175 16.83 17.9091 17.05 17.8007C17.16 17.6923 17.38 17.6923 17.6 17.6923C17.71 17.6923 17.82 17.8007 17.93 17.8007C18.26 17.8007 18.26 17.8007 18.37 17.5839C18.48 17.4755 18.59 17.5839 18.59 17.5839ZM19.58 21.0524C19.58 21.1608 19.47 21.2692 19.47 21.2692C19.58 21.2692 19.69 21.3776 19.8 21.2692C20.02 21.1608 20.13 21.0524 20.35 20.944C20.35 20.944 20.35 20.8357 20.46 20.7273H20.57V20.8357C20.46 21.1608 20.02 21.1608 19.8 21.3776C20.02 21.2692 20.35 21.3776 20.46 21.1608C20.57 20.9441 20.79 20.7273 20.79 20.4021C20.46 20.5105 20.13 20.6189 20.02 20.8357C19.91 20.6189 20.02 20.4021 19.91 20.2937C19.69 20.7273 19.58 20.8357 19.58 21.0524ZM20.57 10.972C20.68 10.972 20.68 10.972 20.57 10.972C20.57 11.1888 20.46 11.2972 20.79 11.4056V11.2972C21.01 11.4056 21.01 11.514 20.9 11.7308L21.01 11.6224L21.12 11.514C21.12 11.6224 21.12 11.7308 21.12 11.8392V11.7308C21.23 11.7308 21.34 11.7308 21.45 11.7308C21.45 11.7308 21.45 11.8392 21.56 11.8392C21.56 11.7308 21.56 11.6224 21.56 11.514L21.45 11.6224V11.514C21.56 11.4056 21.56 11.2972 21.45 11.1888C21.34 11.1888 21.23 11.1888 21.23 11.1888C21.01 11.1888 20.9 11.1888 20.68 11.1888C20.57 11.1888 20.46 11.1888 20.46 11.4056C20.57 11.0804 20.57 10.972 20.57 10.972ZM20.46 17.6923C20.35 17.6923 20.24 17.6923 20.13 17.6923C20.13 17.6923 20.13 17.6923 20.13 17.8007C20.24 17.8007 20.24 17.8007 20.35 17.8007C20.46 17.9091 20.46 18.0175 20.57 18.1259C20.68 18.3427 20.79 18.451 21.01 18.6678C21.12 18.5594 21.23 18.451 21.45 18.2343C21.23 18.1259 21.12 18.1259 21.23 17.9091C21.23 17.9091 21.12 17.6923 21.01 17.6923C20.9 17.5839 20.9 17.8007 20.79 17.8007C20.68 17.9091 20.57 17.9091 20.46 17.9091C20.46 17.6923 20.46 17.6923 20.46 17.6923ZM22.55 18.0175C22.44 18.1259 22.33 18.1259 22.22 18.1259C22.11 18.1259 22 18.1259 21.89 18.2343C21.78 18.3427 21.78 18.3427 21.67 18.451C21.67 18.451 21.67 18.5594 21.56 18.6678C21.67 18.6678 21.78 18.7762 21.78 18.6678C22 18.5594 22.22 18.3427 22.33 18.2343C22.55 18.0175 22.77 17.9091 22.99 17.6923C22.99 17.6923 23.1 17.5839 23.1 17.4755C23.1 17.4755 22.99 17.4755 22.99 17.3671C22.99 17.6923 22.77 17.9091 22.55 18.0175ZM12.98 16.8252C13.31 16.8252 13.75 16.9336 14.08 16.9336C14.08 16.9336 14.08 16.9336 14.19 16.9336C13.86 16.7168 13.64 16.3916 13.31 16.3916C13.2 16.3916 13.09 16.5 13.09 16.5C13.09 16.6084 13.09 16.7168 12.98 16.8252C12.98 16.7168 12.98 16.8252 12.98 16.8252ZM25.41 12.7063C25.41 12.5979 25.41 12.4895 25.41 12.4895C25.63 12.4895 25.63 12.4895 25.63 12.7063C25.74 12.7063 25.85 12.4895 25.74 12.4895C25.52 12.3811 25.3 12.2727 25.08 12.1643L24.86 12.2727C24.86 12.4895 24.97 12.7063 25.08 12.9231C25.08 12.7063 25.08 12.4895 25.41 12.7063ZM15.4 17.4755C15.51 17.4755 15.51 17.4755 15.4 17.4755C15.4 17.3671 15.4 17.2587 15.4 17.2587C15.29 17.1503 15.18 17.042 15.07 17.042C14.74 16.9336 14.52 16.8252 14.19 16.7168C14.19 16.7168 14.19 16.7168 14.08 16.7168C14.52 17.042 14.96 17.2587 15.4 17.4755ZM25.52 9.8881C25.63 9.77971 25.63 9.67132 25.74 9.67132C25.85 9.56293 25.85 9.56293 25.96 9.56293L26.07 9.45454C26.07 9.45454 26.07 9.34615 25.96 9.34615C25.85 9.34615 25.85 9.34615 25.74 9.34615C25.63 9.34615 25.63 9.45454 25.63 9.45454C25.41 9.56293 25.3 9.67132 25.08 9.77971L24.97 9.8881C25.3 10.1049 25.41 10.1049 25.52 9.8881ZM22.44 17.1503C22.55 17.1503 22.77 17.1503 22.77 17.1503C22.99 17.042 22.99 16.8252 22.88 16.6084C22.77 16.3916 22.77 16.3916 22.55 16.5C22.77 16.8252 22.55 16.9336 22.44 17.1503ZM21.23 10.3217C21.23 10.2133 21.12 10.2133 21.12 10.1049L21.01 10.2133C21.01 10.2133 21.01 10.2133 20.9 10.2133C20.9 10.1049 20.79 9.8881 20.79 9.77971C20.68 9.8881 20.57 9.9965 20.46 10.1049H20.57C20.57 10.1049 20.57 10.1049 20.68 10.1049C20.79 10.3217 20.9 10.4301 21.01 10.6468C21.12 10.6468 21.23 10.4301 21.23 10.3217ZM24.86 16.8252C24.75 16.9336 24.64 16.9336 24.42 17.042C24.42 17.042 24.42 17.042 24.42 17.1503V17.2587C24.53 17.3671 24.53 17.4755 24.53 17.6923C24.75 17.3671 24.86 17.1503 24.86 16.8252ZM24.75 14.007C24.64 13.8986 24.53 13.7902 24.31 13.7902C24.2 13.7902 24.2 13.7902 24.09 13.7902C24.09 13.8986 24.09 14.007 24.31 14.007C24.42 14.007 24.53 14.1154 24.53 14.1154C24.64 14.1154 24.64 14.2238 24.75 14.3322C24.86 14.2238 24.86 14.1154 24.75 14.007ZM31.9 15.3077C31.79 15.1993 31.35 15.1993 31.02 15.3077L31.13 15.4161C31.24 15.3077 31.35 15.3077 31.46 15.1993C31.46 15.1993 31.46 15.3077 31.35 15.3077C31.46 15.4161 31.57 15.4161 31.57 15.5245C31.79 15.5245 31.9 15.4161 31.9 15.3077ZM30.8 15.4161V15.3077H30.69C30.58 15.4161 30.36 15.5245 30.25 15.5245V15.6329H30.36C30.47 15.6329 30.69 15.6329 30.8 15.4161ZM20.9 18.993C20.57 19.2098 20.35 19.8601 20.46 20.1853C20.57 20.0769 20.68 19.9685 20.68 19.7517C20.68 19.6433 20.68 19.6434 20.79 19.4266V19.3182C20.9 19.3182 20.9 19.1014 20.9 18.993ZM21.23 15.8496C21.23 15.7413 21.23 15.6329 21.23 15.5245C21.34 15.6329 21.34 15.7413 21.56 15.6329L21.67 15.7413C21.67 15.6329 21.56 15.5245 21.45 15.5245C21.34 15.5245 21.23 15.5245 21.12 15.5245C21.01 15.5245 20.9 15.4161 20.79 15.3077C20.9 15.5245 21.01 15.6329 21.23 15.8496ZM26.07 9.12936C26.07 9.02097 26.07 8.91258 26.07 8.80419C26.07 8.80419 25.96 8.6958 25.85 8.6958C25.74 8.80419 25.52 9.02097 25.41 9.12936C25.52 9.02097 25.85 9.23775 25.85 8.80419C25.96 9.02097 26.07 9.02097 26.07 9.12936ZM22.55 16.8252C22.55 16.7168 22.55 16.6084 22.44 16.5C22.22 16.6084 22.11 16.7168 22.11 16.9336C22.33 16.9336 22.55 17.042 22.55 16.8252ZM24.97 9.8881L25.08 9.77971C25.08 9.77971 25.08 9.67132 25.19 9.67132H25.08L24.97 9.77971C24.75 9.8881 24.75 9.8881 24.97 9.99649C24.97 9.99649 24.97 10.1049 25.08 10.2133C24.97 9.9965 24.97 9.9965 24.97 9.8881ZM31.9 15.0909C31.9 15.0909 32.01 14.9825 31.9 14.9825C31.79 14.8741 31.35 14.9825 31.35 15.0909C31.57 15.0909 31.79 15.0909 31.9 15.0909ZM17.16 14.007C17.27 14.007 17.38 14.007 17.38 13.7902C17.16 13.7902 16.94 13.7902 16.72 13.7902C16.94 14.007 17.05 14.007 17.16 14.007ZM24.31 12.0559C24.2 12.2727 24.31 12.3811 24.64 12.5979C24.53 12.3811 24.42 12.1643 24.31 12.0559ZM14.19 12.2727C14.19 12.3811 14.19 12.3811 14.19 12.2727C14.08 12.3811 14.08 12.4895 14.08 12.5979C14.08 12.5979 14.08 12.7063 14.19 12.7063H14.3C14.3 12.7063 14.41 12.5979 14.52 12.4895C14.41 12.4895 14.3 12.3811 14.19 12.2727ZM13.31 15.7413L13.42 15.8496C13.42 15.7413 13.31 15.7413 13.31 15.6329C13.42 15.6329 13.42 15.7413 13.53 15.7413C13.53 15.6329 13.53 15.5245 13.53 15.4161C13.42 15.5245 13.31 15.6329 13.31 15.7413ZM21.89 9.99649C21.89 10.1049 21.89 10.1049 21.89 10.2133H22C22 10.1049 22.11 9.99649 21.89 9.99649C21.89 9.8881 21.89 9.77971 21.78 9.77971C21.78 9.8881 21.78 9.8881 21.89 9.99649ZM23.43 9.77971C23.65 9.67132 23.65 9.56293 23.32 9.34615C23.43 9.45454 23.21 9.67132 23.43 9.77971ZM28.27 16.8252C28.27 16.9336 28.16 17.042 28.16 17.042C28.16 17.1503 28.27 17.1503 28.27 17.2587C28.38 17.1503 28.38 16.9336 28.27 16.8252ZM26.29 16.1748C26.4 16.1748 26.4 16.1748 26.51 16.0664C26.51 16.0664 26.4 15.958 26.29 15.958C26.18 15.958 26.07 15.958 25.96 15.958C25.96 15.958 25.96 15.958 25.96 16.0664C26.07 16.0664 26.18 16.0664 26.29 16.1748ZM20.46 21.9196C20.46 21.8112 20.35 21.8112 20.35 21.7028L20.24 21.8112C20.24 21.9196 20.24 21.9196 20.24 22.028C20.46 22.1364 20.46 22.028 20.46 21.9196ZM20.9 19.535C20.9 19.7517 20.9 19.9685 20.9 20.1853C21.01 19.9685 21.01 19.6434 20.9 19.535ZM23.32 18.1259C22.99 18.1259 22.88 18.2343 22.88 18.5594C22.99 18.451 23.21 18.3427 23.32 18.1259ZM19.36 17.3671C19.25 17.1503 19.03 17.2587 18.92 17.2587C19.03 17.3671 19.14 17.4755 19.36 17.3671ZM21.56 9.8881C21.56 9.77971 21.67 9.67132 21.67 9.67132C21.56 9.56293 21.45 9.56293 21.45 9.56293C21.45 9.56293 21.45 9.67132 21.34 9.67132C21.45 9.77971 21.56 9.77971 21.56 9.8881ZM19.91 14.9825C19.91 14.9825 20.02 14.9825 20.02 14.8741C20.02 14.8741 20.02 14.7657 19.91 14.7657C19.8 14.7657 19.69 14.7657 19.58 14.7657V14.8741C19.69 14.8741 19.8 14.8741 19.91 14.9825ZM21.56 10.5385C21.34 10.5385 21.23 10.5385 21.12 10.7552C21.45 10.7552 21.45 10.7552 21.56 10.5385ZM28.6 12.9231C28.38 12.9231 28.27 12.8147 28.16 12.8147C28.16 12.8147 28.16 12.8147 28.16 12.9231C28.16 13.0315 28.38 13.0315 28.6 12.9231ZM18.26 17.2587C18.15 17.1503 18.04 16.9336 17.82 17.042C17.93 17.2587 18.04 17.2587 18.26 17.2587ZM20.02 16.3916L20.13 16.2832C20.13 16.1748 20.02 16.1748 20.02 16.0664L19.91 16.1748C19.91 16.2832 19.91 16.3916 20.02 16.3916ZM16.83 16.9336C16.83 16.9336 16.83 16.8252 16.83 16.9336C16.61 16.8252 16.5 16.9336 16.28 16.9336V17.042C16.5 17.042 16.72 16.9336 16.83 16.9336ZM23.1 9.99649L23.21 9.8881C23.21 9.77971 23.1 9.77971 22.99 9.77971L22.88 9.8881C22.99 9.8881 23.1 9.8881 23.1 9.99649ZM25.63 10.1049C25.63 10.2133 25.63 10.2133 25.63 10.1049C25.85 9.9965 25.85 9.99649 25.74 9.77971C25.63 9.8881 25.52 9.9965 25.63 10.1049ZM25.41 12.0559C25.41 12.0559 25.52 12.0559 25.52 11.9475C25.52 11.9475 25.52 11.8392 25.41 11.8392C25.3 11.8392 25.19 11.8392 25.19 11.9475C25.19 12.0559 25.3 12.0559 25.41 12.0559ZM23.21 10.4301C23.32 10.3217 23.43 10.3217 23.43 10.2133L23.32 10.1049C23.21 10.2133 23.21 10.2133 23.21 10.4301ZM31.68 15.8496C31.57 15.8496 31.57 15.958 31.46 15.958L31.57 16.0664C31.68 16.0664 31.68 16.0664 31.79 15.958C31.79 15.958 31.79 15.958 31.79 15.8496C31.79 15.958 31.79 15.8496 31.68 15.8496ZM18.7 17.2587C18.7 17.1503 18.59 17.1503 18.48 17.042C18.48 17.042 18.37 17.042 18.37 17.1503C18.48 17.2587 18.48 17.2587 18.59 17.3671C18.7 17.2587 18.7 17.2587 18.7 17.2587ZM17.93 11.6224C17.93 11.4056 18.04 11.2972 18.04 11.1888C17.93 11.1888 17.82 11.4056 17.93 11.6224ZM19.58 16.8252C19.47 16.8252 19.47 16.8252 19.36 16.8252C19.47 16.9336 19.69 16.9336 19.8 17.042C19.69 16.9336 19.58 16.8252 19.58 16.8252ZM19.8 11.1888C19.69 11.0804 19.58 10.972 19.58 10.8636C19.58 10.972 19.47 10.972 19.47 11.0804C19.58 11.0804 19.58 11.1888 19.8 11.1888ZM17.49 11.1888L17.6 11.2972C17.6 11.1888 17.71 11.1888 17.71 11.0804C17.71 11.0804 17.71 10.972 17.6 10.972C17.6 11.0804 17.49 11.1888 17.49 11.1888ZM22.33 15.5245C22.33 15.5245 22.33 15.4161 22.22 15.4161L22.11 15.5245C22.11 15.5245 22.11 15.6329 22.22 15.6329L22.33 15.5245ZM22 16.7168C21.89 16.5 21.78 16.3916 21.56 16.5C21.78 16.6084 21.89 16.6084 22 16.7168ZM16.5 13.8986C16.61 13.8986 16.72 14.007 16.72 14.007V13.8986C16.61 13.7902 16.5 13.7902 16.5 13.8986C16.39 13.8986 16.39 13.8986 16.5 13.8986ZM30.03 16.0664C30.03 15.958 29.92 15.958 29.92 15.958L29.81 16.0664C29.81 16.1748 29.92 16.1748 29.92 16.2832C29.92 16.0664 30.03 16.0664 30.03 16.0664ZM17.38 16.9336C17.49 17.042 17.6 17.042 17.6 17.1503C17.6 16.8252 17.6 16.8252 17.38 16.9336ZM23.54 16.5C23.43 16.5 23.43 16.5 23.54 16.5C23.43 16.5 23.43 16.6084 23.43 16.6084L23.54 16.7168C23.54 16.7168 23.54 16.6084 23.54 16.5ZM18.81 14.2238C18.81 14.1154 18.81 13.8986 18.59 14.007C18.7 14.1154 18.7 14.2238 18.81 14.2238ZM29.92 16.2832C29.7 16.1748 29.7 16.1748 29.59 16.3916C29.7 16.3916 29.81 16.2832 29.92 16.2832ZM27.06 15.8496C27.17 15.7413 27.17 15.6329 27.06 15.5245C27.06 15.6329 27.06 15.7413 27.06 15.8496Z" fill="white"/>
<path d="M43.56 31.2413C43.56 31.3497 43.56 31.5664 43.56 31.6748L43.45 31.7832H43.34C40.48 31.7832 37.62 31.7832 34.76 31.7832C34.65 31.7832 34.54 31.7832 34.54 31.7832C34.54 31.6748 34.54 31.4581 34.54 31.3497C34.54 31.3497 34.54 31.3497 34.65 31.3497H34.76C37.62 31.3497 40.59 31.3497 43.45 31.3497C43.34 31.2413 43.45 31.2413 43.56 31.2413Z" fill="white"/>
<path d="M10.01 31.2413C10.01 31.4581 10.01 31.5664 10.01 31.7832C6.92997 31.7832 3.95997 31.7832 0.879974 31.7832C0.879974 31.5664 0.879974 31.4581 0.879974 31.2413C3.84997 31.2413 6.92997 31.2413 10.01 31.2413Z" fill="white"/>
<path d="M39.38 22.2447C38.39 22.2447 37.29 22.2447 36.3 22.2447C36.19 22.2447 36.19 22.2447 36.08 22.2447C35.97 22.2447 35.86 22.1364 35.86 22.028C35.86 21.9196 35.97 21.9196 36.08 21.8112C36.08 21.8112 36.19 21.8112 36.3 21.8112C38.39 21.8112 40.48 21.8112 42.57 21.8112C43.01 21.8112 43.23 21.486 43.12 21.1608C43.01 20.7273 42.46 20.6189 42.13 20.944C42.02 21.1608 41.91 21.1608 41.8 21.0524C41.69 20.944 41.69 20.8357 41.8 20.6189C42.02 20.2937 42.57 20.1853 42.9 20.2937C43.34 20.5105 43.56 20.8357 43.56 21.2692C43.56 21.7028 43.23 22.028 42.79 22.1364C42.68 22.1364 42.57 22.1364 42.46 22.1364C41.47 22.2447 40.37 22.2447 39.38 22.2447Z" fill="white"/>
<path d="M4.94997 22.2447C3.95997 22.2447 2.85997 22.2447 1.86997 22.2447C1.53997 22.2447 1.20997 22.1363 0.989972 21.8112C0.659972 21.3776 0.769972 20.7273 1.20997 20.4021C1.64997 20.0769 2.30997 20.1853 2.63997 20.6189C2.63997 20.6189 2.63997 20.7273 2.74997 20.7273C2.74997 20.8356 2.85997 20.944 2.74997 21.0524C2.63997 21.1608 2.52997 21.0524 2.41997 20.944C2.30997 20.7273 2.08997 20.6189 1.75997 20.7273C1.53997 20.8356 1.31997 21.0524 1.31997 21.2692C1.31997 21.5944 1.53997 21.8112 1.86997 21.8112C1.97997 21.8112 1.97997 21.8112 2.08997 21.8112C4.17997 21.8112 6.15997 21.8112 8.24997 21.8112C8.35997 21.8112 8.35997 21.8112 8.46997 21.8112C8.57997 21.8112 8.68997 21.9196 8.68997 22.028C8.68997 22.1363 8.57997 22.2447 8.46997 22.2447C8.35997 22.2447 8.35997 22.2447 8.24997 22.2447C7.03997 22.2447 6.04997 22.2447 4.94997 22.2447Z" fill="white"/>
<path d="M22.88 32C22.66 31.8916 22.55 31.7832 22.33 31.5664C22.22 31.458 22.11 31.458 22 31.5664C21.78 31.6748 21.67 31.7832 21.45 32C21.56 31.6748 21.67 31.458 21.67 31.1329C21.45 30.9161 21.23 30.8077 21.01 30.6993C21.23 30.6993 21.45 30.6993 21.56 30.6993C21.78 30.6993 21.89 30.5909 21.89 30.4825C21.89 30.2657 22 30.1573 22.11 29.8322C22.22 30.1573 22.33 30.3741 22.44 30.6993C22.77 30.6993 22.99 30.6993 23.32 30.6993C23.1 30.8077 22.99 31.0245 22.77 31.1329C22.66 31.2412 22.66 31.2412 22.66 31.3496C22.77 31.5664 22.88 31.7832 22.88 32Z" fill="white"/>
<path d="M24.97 30.8077C25.19 30.8077 25.41 30.8077 25.52 30.8077C25.63 30.5909 25.63 30.3741 25.74 30.1573C25.85 30.3741 25.85 30.4825 25.96 30.6993C25.96 30.8077 26.07 30.8077 26.18 30.8077C26.29 30.8077 26.51 30.8077 26.62 30.8077C26.51 30.9161 26.4 31.0245 26.29 31.1329C26.29 31.1329 26.18 31.2413 26.18 31.3497C26.18 31.458 26.29 31.6748 26.4 31.8916C26.18 31.7832 26.07 31.6748 25.96 31.5664C25.96 31.5664 25.85 31.5664 25.74 31.5664C25.63 31.6748 25.52 31.7832 25.3 31.8916C25.41 31.6748 25.41 31.5664 25.41 31.458C25.41 31.3497 25.41 31.2413 25.3 31.1329C25.08 31.0245 24.97 30.9161 24.97 30.8077Z" fill="white"/>
<path d="M19.47 30.8077C19.36 30.9161 19.25 31.0245 19.14 31.1329C19.14 31.1329 19.03 31.2413 19.03 31.3497C19.03 31.4581 19.14 31.6748 19.14 31.8916C18.92 31.7832 18.81 31.6748 18.7 31.5664C18.59 31.4581 18.59 31.4581 18.48 31.5664C18.37 31.6748 18.26 31.7832 18.04 31.8916C18.04 31.6748 18.15 31.5664 18.15 31.4581C18.26 31.3497 18.26 31.2413 18.04 31.1329C17.93 31.0245 17.82 31.0245 17.71 30.9161C17.82 30.9161 18.04 30.9161 18.15 30.9161C18.26 30.9161 18.26 30.9161 18.37 30.8077C18.37 30.6993 18.48 30.4825 18.59 30.2657C18.7 30.4825 18.7 30.5909 18.81 30.8077C18.81 30.9161 18.92 30.9161 19.03 30.9161C19.14 30.8077 19.25 30.8077 19.47 30.8077Z" fill="white"/>
<path d="M0.161932 25.6189V24.6643H3.95455V25.6189H2.64205V29.028H1.47443V25.6189H0.161932ZM4.40039 29.028V24.6643H6.28391C6.60778 24.6643 6.89116 24.7233 7.13406 24.8412C7.37695 24.9591 7.56587 25.1288 7.70082 25.3504C7.83576 25.572 7.90323 25.8376 7.90323 26.1473C7.90323 26.4598 7.83363 26.7233 7.69442 26.9378C7.55664 27.1523 7.36275 27.3142 7.11275 27.4236C6.86417 27.5329 6.57369 27.5876 6.2413 27.5876H5.1163V26.6672H6.00266C6.14187 26.6672 6.26048 26.6501 6.35849 26.616C6.45792 26.5805 6.53391 26.5244 6.58647 26.4477C6.64045 26.371 6.66744 26.2709 6.66744 26.1473C6.66744 26.0223 6.64045 25.9207 6.58647 25.8426C6.53391 25.7631 6.45792 25.7048 6.35849 25.6679C6.26048 25.6295 6.14187 25.6104 6.00266 25.6104H5.58505V29.028H4.40039ZM6.95721 27.0251L8.04812 29.028H6.76119L5.69585 27.0251H6.95721ZM8.4082 29.028V24.6643H11.5531V25.6189H9.59286V26.3689H11.3912V27.3234H9.59286V28.0734H11.5446V29.028H8.4082ZM12.1406 29.028V24.6643H15.2855V25.6189H13.3253V26.3689H15.1236V27.3234H13.3253V28.0734H15.277V29.028H12.1406ZM19.4206 26.028C19.4093 25.8859 19.356 25.7751 19.2608 25.6956C19.1671 25.616 19.0243 25.5763 18.8326 25.5763C18.7104 25.5763 18.6103 25.5912 18.5321 25.621C18.4554 25.6494 18.3986 25.6885 18.3617 25.7382C18.3248 25.7879 18.3056 25.8447 18.3042 25.9087C18.3013 25.9612 18.3105 26.0088 18.3319 26.0514C18.3546 26.0926 18.3901 26.1302 18.4384 26.1643C18.4867 26.197 18.5485 26.2268 18.6238 26.2538C18.699 26.2808 18.7885 26.305 18.8922 26.3263L19.2502 26.403C19.4917 26.4541 19.6983 26.5216 19.8702 26.6054C20.0421 26.6892 20.1827 26.7879 20.2921 26.9015C20.4015 27.0138 20.4817 27.1402 20.5328 27.2808C20.5854 27.4214 20.6124 27.5748 20.6138 27.741C20.6124 28.028 20.5407 28.2709 20.3986 28.4697C20.2566 28.6686 20.0534 28.8199 19.7892 28.9236C19.5265 29.0273 19.2104 29.0791 18.8411 29.0791C18.4618 29.0791 18.1309 29.023 17.8482 28.9108C17.5669 28.7986 17.3482 28.626 17.1919 28.393C17.0371 28.1587 16.959 27.8589 16.9576 27.4939H18.0826C18.0897 27.6274 18.123 27.7396 18.1827 27.8305C18.2424 27.9214 18.3262 27.9903 18.4341 28.0372C18.5435 28.0841 18.6735 28.1075 18.824 28.1075C18.9505 28.1075 19.0563 28.0919 19.1415 28.0606C19.2267 28.0294 19.2914 27.9861 19.3354 27.9307C19.3794 27.8753 19.4022 27.8121 19.4036 27.741C19.4022 27.6743 19.3801 27.616 19.3375 27.5663C19.2963 27.5152 19.2282 27.4697 19.133 27.43C19.0378 27.3888 18.9093 27.3504 18.7473 27.3149L18.3127 27.2212C17.9263 27.1373 17.6216 26.9974 17.3986 26.8014C17.177 26.604 17.0669 26.3348 17.0684 25.9939C17.0669 25.7169 17.1408 25.4747 17.29 25.2673C17.4405 25.0585 17.6486 24.8959 17.9142 24.7794C18.1813 24.6629 18.4874 24.6047 18.8326 24.6047C19.1848 24.6047 19.4895 24.6636 19.7466 24.7815C20.0037 24.8994 20.2019 25.0656 20.3411 25.2801C20.4817 25.4932 20.5527 25.7425 20.5542 26.028H19.4206ZM21.0645 29.028V24.6643H24.2093V25.6189H22.2491V26.3689H24.0474V27.3234H22.2491V28.0734H24.2008V29.028H21.0645ZM24.7969 29.028V24.6643H26.6804C27.0043 24.6643 27.2876 24.7233 27.5305 24.8412C27.7734 24.9591 27.9624 25.1288 28.0973 25.3504C28.2322 25.572 28.2997 25.8376 28.2997 26.1473C28.2997 26.4598 28.2301 26.7233 28.0909 26.9378C27.9531 27.1523 27.7592 27.3142 27.5092 27.4236C27.2607 27.5329 26.9702 27.5876 26.6378 27.5876H25.5128V26.6672H26.3991C26.5384 26.6672 26.657 26.6501 26.755 26.616C26.8544 26.5805 26.9304 26.5244 26.983 26.4477C27.0369 26.371 27.0639 26.2709 27.0639 26.1473C27.0639 26.0223 27.0369 25.9207 26.983 25.8426C26.9304 25.7631 26.8544 25.7048 26.755 25.6679C26.657 25.6295 26.5384 25.6104 26.3991 25.6104H25.9815V29.028H24.7969ZM27.3537 27.0251L28.4446 29.028H27.1577L26.0923 27.0251H27.3537ZM29.8631 24.6643L30.758 27.741H30.7921L31.687 24.6643H33.025L31.5847 29.028H29.9654L28.525 24.6643H29.8631ZM34.63 24.6643V29.028H33.4453V24.6643H34.63ZM39.2653 26.3007H38.0636C38.055 26.2013 38.0323 26.1111 37.9954 26.0301C37.9599 25.9491 37.9102 25.8795 37.8462 25.8213C37.7837 25.7616 37.7077 25.7162 37.6183 25.6849C37.5288 25.6523 37.4272 25.6359 37.3136 25.6359C37.1147 25.6359 36.9464 25.6842 36.8086 25.7808C36.6722 25.8774 36.5685 26.0159 36.4975 26.1963C36.4279 26.3767 36.3931 26.5933 36.3931 26.8462C36.3931 27.1132 36.4286 27.3369 36.4996 27.5173C36.5721 27.6963 36.6765 27.8312 36.8129 27.9221C36.9492 28.0116 37.1133 28.0564 37.305 28.0564C37.4144 28.0564 37.5124 28.0429 37.5991 28.0159C37.6857 27.9875 37.761 27.947 37.8249 27.8944C37.8888 27.8419 37.9407 27.7787 37.9805 27.7048C38.0217 27.6295 38.0494 27.545 38.0636 27.4513L39.2653 27.4598C39.2511 27.6444 39.1992 27.8327 39.1097 28.0244C39.0202 28.2148 38.8931 28.3909 38.7283 28.5528C38.565 28.7133 38.3626 28.8426 38.1211 28.9406C37.8796 29.0386 37.5991 29.0876 37.2795 29.0876C36.8789 29.0876 36.5195 29.0017 36.2013 28.8298C35.8846 28.6579 35.6339 28.4051 35.4492 28.0713C35.266 27.7375 35.1744 27.3291 35.1744 26.8462C35.1744 26.3604 35.2681 25.9513 35.4556 25.6189C35.6431 25.2851 35.896 25.0329 36.2141 24.8625C36.5323 24.6906 36.8874 24.6047 37.2795 24.6047C37.555 24.6047 37.8086 24.6423 38.0401 24.7176C38.2717 24.7929 38.4748 24.903 38.6495 25.0479C38.8242 25.1913 38.9648 25.3682 39.0714 25.5784C39.1779 25.7886 39.2425 26.0294 39.2653 26.3007ZM39.8027 29.028V24.6643H42.9476V25.6189H40.9874V26.3689H42.7857V27.3234H40.9874V28.0734H42.9391V29.028H39.8027Z" fill="white"/>
<path d="M6.71 9.34616C6.82 9.23777 6.93 9.23777 7.04 9.12937C7.26 9.56294 7.37 9.77972 7.48 10.2133C6.71 10.6469 6.38 10.8636 5.61 11.4056C5.39 10.972 5.28 10.8636 4.95 10.4301C5.06 10.3217 5.17 10.3217 5.28 10.2133C4.73 9.23777 4.51 8.8042 3.96 7.93707C3.85 8.04546 3.74 8.04546 3.63 8.15385C3.52 7.82867 3.41 7.61189 3.19 7.28672C4.73 6.2028 5.39 5.66084 6.71 4.9021C7.15 5.01049 7.37 5.01049 7.81 5.22727C8.03 5.76923 8.03 5.98602 8.25 6.41958C8.14 6.63637 8.14 6.74476 8.03 6.96154C8.25 6.96154 8.25 7.06993 8.47 7.06993C8.58 7.5035 8.69 7.72028 8.91 8.15385C9.02 8.04546 9.13 8.04546 9.24 8.04546C9.35 8.47902 9.46 8.69581 9.68 9.12937C9.02 9.45455 8.69 9.67133 8.14 9.99651C7.81 9.34616 7.7 8.91259 7.37 8.26224C7.26 8.26224 7.26 8.26224 7.15 8.15385C6.82 8.37063 6.71 8.37063 6.49 8.58742C6.49 8.8042 6.49 9.02098 6.71 9.34616ZM5.83 7.5035C6.16 7.28672 6.27 7.17832 6.6 7.06993C6.6 6.96154 6.71 6.96154 6.71 6.85315C6.6 6.63637 6.6 6.63637 6.6 6.41958C6.49 6.41958 6.49 6.41958 6.38 6.41958C6.05 6.63637 5.94 6.74476 5.61 6.85315C5.72 7.17832 5.72 7.28672 5.83 7.5035Z" fill="#EA4200"/>
<path d="M12.76 2.30069C12.87 2.73426 12.98 2.95104 13.09 3.38461C12.98 3.38461 12.87 3.38461 12.76 3.493C13.53 4.46852 13.86 4.90209 14.63 5.87761C14.74 5.87761 14.85 5.87761 14.96 5.76922C15.07 6.20279 15.07 6.41957 15.18 6.85314C14.41 7.06992 13.97 7.17831 13.2 7.3951C13.09 6.96153 12.98 6.74475 12.87 6.31118C12.98 6.31118 12.98 6.31118 13.09 6.20279C12.98 6.0944 12.98 6.0944 12.98 5.986C12.43 6.20279 12.21 6.20279 11.66 6.41957C11.66 6.52796 11.66 6.52796 11.66 6.63635C11.77 6.63635 11.77 6.63635 11.88 6.52796C11.99 6.96153 12.1 7.17831 12.21 7.61188C11.44 7.93705 11.11 8.04544 10.34 8.37062C10.23 7.93705 10.12 7.72027 9.89999 7.2867C10.01 7.17831 10.12 7.17831 10.23 7.17831C10.34 5.87761 10.34 5.22726 10.56 4.03496C10.45 4.03496 10.45 4.14335 10.34 4.14335C10.23 3.70978 10.12 3.493 10.01 3.05943C11 2.84265 11.55 2.62586 12.76 2.30069ZM11.66 5.55244C11.88 5.44405 12.1 5.44405 12.32 5.33565C12.1 5.11887 11.99 4.90209 11.77 4.68531C11.77 5.01048 11.77 5.11887 11.66 5.55244Z" fill="#EA4200"/>
<path d="M18.92 6.20281C18.26 5.33567 17.93 4.90211 17.27 4.14336C17.38 4.57693 17.38 4.79371 17.49 5.22728C17.6 5.22728 17.71 5.22728 17.82 5.22728C17.93 5.66085 17.93 5.87763 17.93 6.41959C17.16 6.52798 16.72 6.63637 15.95 6.74476C15.84 6.3112 15.84 6.09441 15.73 5.66085C15.84 5.66085 15.95 5.66085 16.06 5.55246C15.84 4.46854 15.73 3.92658 15.51 2.84266C15.4 2.84266 15.29 2.84266 15.18 2.95106C15.07 2.51749 15.07 2.30071 14.96 1.86714C15.73 1.65036 16.17 1.65036 16.94 1.54196C17.71 2.4091 18.04 2.84266 18.81 3.60141C18.81 3.16784 18.7 2.84266 18.7 2.4091C18.59 2.4091 18.48 2.4091 18.37 2.4091C18.37 1.97553 18.26 1.75875 18.26 1.21679C19.14 1.1084 19.58 1.1084 20.46 1.1084C20.46 1.54196 20.46 1.75875 20.57 2.19231C20.46 2.19231 20.35 2.19231 20.24 2.19231C20.35 3.27623 20.35 3.81819 20.46 5.0105C20.57 5.0105 20.68 5.0105 20.79 5.0105C20.79 5.44406 20.79 5.66085 20.79 6.20281C19.91 6.09441 19.58 6.20281 18.92 6.20281Z" fill="#EA4200"/>
<path d="M21.12 1C22.44 1 23.1 1 24.53 1.21678C24.86 1.54196 24.97 1.75874 25.3 2.08392C25.19 3.38462 25.08 4.03497 24.97 5.33566C24.64 5.66084 24.42 5.76923 24.09 6.09441C22.88 5.98601 22.33 5.98601 21.23 5.98601C21.23 5.55245 21.23 5.33566 21.23 4.79371C21.34 4.79371 21.45 4.79371 21.56 4.79371C21.56 3.70979 21.56 3.16783 21.45 2.08392C21.34 2.08392 21.23 2.08392 21.12 2.08392C21.12 1.75874 21.12 1.54196 21.12 1ZM22.77 4.9021C22.99 4.9021 23.21 4.9021 23.43 4.9021C23.54 4.79371 23.54 4.79371 23.54 4.79371C23.65 3.81818 23.65 3.38462 23.65 2.40909C23.54 2.3007 23.54 2.3007 23.54 2.19231C23.21 2.19231 23.1 2.19231 22.77 2.08392C22.88 3.27622 22.77 3.81818 22.77 4.9021Z" fill="#EA4200"/>
<path d="M29.7 5.01049C29.59 5.44406 29.59 5.66084 29.48 6.09441C29.59 6.09441 29.7 6.2028 29.81 6.2028C29.7 6.63637 29.59 6.85315 29.48 7.28672C28.71 7.06993 28.27 6.96154 27.39 6.74476C27.5 6.31119 27.5 6.09441 27.61 5.66084C27.72 5.66084 27.83 5.66084 27.94 5.76924C28.05 5.33567 28.05 5.11889 28.16 4.68532C27.61 3.92658 27.17 3.49301 26.62 2.73427C26.4 2.73427 26.29 2.62588 26.07 2.62588C26.18 2.19231 26.18 1.97553 26.18 1.54196C27.28 1.75874 27.94 1.86714 29.04 2.08392C28.93 2.51749 28.93 2.73427 28.82 3.16784C28.71 3.16784 28.71 3.16784 28.6 3.05944C28.82 3.38462 28.93 3.49301 29.15 3.81819C29.48 3.70979 29.7 3.6014 30.03 3.49301C29.92 3.49301 29.92 3.49301 29.81 3.38462C29.92 2.95105 29.92 2.73427 30.03 2.3007C31.13 2.62588 31.68 2.73427 32.67 3.16784C32.56 3.6014 32.45 3.81819 32.34 4.25175C32.12 4.14336 32.12 4.14336 31.9 4.14336C31.02 4.36014 30.58 4.57693 29.7 5.01049Z" fill="#EA4200"/>
<path d="M33.33 3.60141C33.55 3.05946 33.55 2.73428 33.77 2.19232C34.43 2.5175 34.87 2.62589 35.53 2.95106C35.31 3.49302 35.2 3.8182 34.98 4.36015C34.32 4.57694 33.99 4.68533 33.44 4.79372C33.55 4.36015 33.66 4.14337 33.77 3.7098C33.66 3.7098 33.55 3.60141 33.33 3.60141Z" fill="#EA4200"/>
<path d="M37.4 8.91259C36.85 8.47903 36.52 8.37064 35.97 7.93707C35.75 7.5035 35.64 7.17833 35.42 6.74476C35.64 6.2028 35.75 5.98602 35.86 5.44406C36.3 5.33567 36.52 5.33567 36.96 5.22728C37.84 5.87763 38.39 6.2028 39.27 6.96155C39.49 7.5035 39.6 7.82868 39.71 8.37064C39.6 8.69581 39.49 8.8042 39.38 9.12938C38.83 8.69581 38.61 8.47903 38.06 8.04546C38.17 7.93707 38.17 7.82868 38.28 7.6119C38.28 7.5035 38.17 7.5035 38.17 7.39511C37.84 7.17833 37.73 7.06994 37.4 6.85315C37.29 6.85315 37.29 6.85315 37.18 6.85315C37.07 7.06994 37.07 7.06994 36.96 7.28672C36.96 7.39511 37.07 7.39511 37.07 7.5035C37.62 7.93707 37.95 8.15385 38.5 8.58742C38.72 9.12938 38.83 9.34616 38.94 9.77973C38.72 10.2133 38.61 10.4301 38.28 10.8636C37.84 10.8636 37.62 10.972 37.07 11.0804C36.3 10.5385 35.86 10.3217 34.98 9.77973C34.87 9.23777 34.76 9.02099 34.54 8.58742C34.65 8.26225 34.76 8.04546 34.87 7.72029C35.42 8.04546 35.75 8.15385 36.3 8.58742C36.19 8.8042 36.19 8.8042 36.08 9.02099C36.3 9.02099 36.3 9.02099 36.3 9.12938C36.63 9.34616 36.74 9.34616 36.96 9.56294C37.07 9.56294 37.07 9.56294 37.18 9.56294C37.29 9.45455 37.29 9.34616 37.4 9.12938C37.4 9.12938 37.4 9.02099 37.4 8.91259Z" fill="#EA4200"/>
</svg>
