<svg width="87" height="63" viewBox="0 0 87 63" fill="none" xmlns="http://www.w3.org/2000/svg">
<path d="M36.105 27.67C36.105 27.8836 36.3225 27.8836 36.3225 28.0972C36.54 28.3107 36.54 28.3108 36.3225 28.5243C36.105 28.3108 35.8875 28.3108 35.67 28.7379L35.4525 28.9515C35.4525 28.5243 35.67 28.3107 35.67 28.0972C35.67 27.67 35.235 27.8836 35.0175 27.67C35.4525 27.2428 35.4525 27.2428 35.235 26.8156C35.0175 26.602 34.5825 26.602 34.1475 26.602C33.7125 26.8156 33.2775 27.0292 32.625 26.8156C32.4075 26.8156 32.19 26.8156 31.9725 26.8156C31.755 26.8156 31.5375 26.8156 31.5375 26.8156C31.32 26.3884 30.885 26.602 30.6675 26.8156C30.45 27.0292 30.015 27.0292 30.015 26.602C29.7975 26.602 29.58 26.8156 29.3625 26.8156C29.145 26.8156 28.71 26.8156 28.4925 26.8156C28.275 26.8156 28.275 26.602 28.0575 26.602C27.84 26.602 26.1 26.602 25.8825 26.3884C26.1 26.3884 26.3175 26.3884 26.535 26.3884C26.3175 26.3884 25.8825 26.3884 25.665 26.3884C25.665 26.3884 25.665 26.3884 25.665 26.1748C25.8825 26.1748 25.8825 26.1748 26.1 26.1748C26.3175 26.1748 26.535 26.1748 26.7525 26.3884C26.97 26.3884 26.97 26.3884 27.1875 26.3884C26.97 26.1748 26.97 26.1748 26.7525 26.1748C26.535 26.1748 26.1 26.1748 25.8825 26.1748C25.665 26.1748 25.665 26.1748 25.4475 26.1748C25.4475 26.1748 25.4475 26.1748 25.665 26.1748L25.8825 25.9612C25.8825 25.534 26.1 25.534 26.3175 25.7476C26.1 25.534 26.1 25.534 25.8825 25.3204C26.1 25.3204 26.3175 25.3204 26.3175 25.3204C26.3175 25.1068 26.3175 25.1068 26.3175 24.8932C26.535 24.8932 26.535 24.6796 26.535 24.6796C26.535 24.6796 26.535 24.8932 26.7525 24.8932C27.1875 24.6796 26.97 24.0388 27.405 24.0388C27.405 23.8252 27.405 23.6117 27.405 23.3981C27.405 23.1845 27.6225 22.7573 27.84 22.5437H28.0575C28.0575 22.5437 28.0575 22.5437 27.84 22.3301C28.0575 22.3301 28.0575 22.1165 28.275 22.1165C28.275 22.1165 28.275 22.3301 28.4925 22.3301C28.71 22.3301 28.71 22.3301 28.9275 22.3301C29.145 22.1165 29.3625 22.1165 29.58 21.9029C29.58 21.9029 29.58 21.9029 29.58 21.6893C29.58 21.4757 29.58 21.4757 29.58 21.2621C29.3625 21.2621 29.145 21.0485 28.9275 21.0485C28.9275 21.0485 28.9275 21.0485 28.9275 20.8349C29.145 20.8349 29.3625 20.8349 29.58 20.8349V20.6213C29.58 20.6213 29.58 20.6213 29.3625 20.4077C29.58 20.4077 29.58 20.1941 29.7975 20.1941C29.58 19.9805 29.58 19.7669 29.7975 19.5533L30.015 19.3397C30.2325 19.1262 30.45 19.1262 30.45 18.9126C30.6675 18.9126 30.6675 18.699 30.885 18.699C31.32 18.699 31.5375 18.4854 31.9725 18.4854C31.9725 18.699 31.9725 18.9126 31.9725 19.1262C32.19 19.1262 32.4075 19.1262 32.625 19.1262C32.625 19.3398 32.8425 19.5533 32.8425 19.5533C33.06 19.3398 33.2775 19.3398 33.7125 19.1262C33.7125 18.9126 33.7125 18.699 33.7125 18.4854C33.93 18.699 33.93 18.699 33.93 18.699C33.93 18.699 33.93 18.4854 34.1475 18.4854C34.1475 18.699 34.1475 18.699 34.1475 18.699C34.365 18.699 34.5825 18.699 34.8 18.9126C35.0175 18.2718 35.235 18.9126 35.4525 18.9126C35.4525 19.1262 35.235 19.3398 35.235 19.5533C35.4525 19.5533 35.67 19.5533 35.67 19.5533L35.8875 19.7669C36.105 19.7669 36.105 19.7669 36.3225 19.5533C36.3225 19.7669 36.105 19.7669 36.105 19.9805C36.3225 20.4077 36.54 20.6213 36.54 21.0485V20.8349C36.54 20.8349 36.54 21.0485 36.7575 21.0485C36.7575 20.8349 36.7575 20.6213 36.7575 20.6213L36.975 20.8349C36.975 20.6213 36.975 20.4077 37.1925 19.9805C37.41 20.1941 37.41 20.1941 37.41 20.1941L37.1925 19.9805C36.7575 19.5533 36.3225 19.3397 36.3225 18.9126C36.105 18.2718 36.105 18.0582 35.4525 18.0582C35.4525 17.8446 35.4525 17.8446 35.4525 17.631C35.4525 17.4174 35.4525 17.4174 35.4525 17.2038L35.67 17.4174C35.8875 16.9902 35.8875 17.4174 36.105 17.4174C36.3225 17.2038 36.3225 16.9902 36.54 16.563C36.7575 16.7766 36.975 16.7766 37.1925 16.3494H37.41C37.6275 16.563 37.845 16.1358 37.845 16.1358C37.845 15.9222 37.845 15.7086 37.6275 15.7086C37.6275 15.495 37.41 15.495 37.1925 15.2814C37.1925 15.2814 37.1925 15.0678 37.1925 14.8543C37.41 14.8543 37.41 14.8543 37.41 14.8543C37.41 14.6407 37.41 14.4271 37.6275 14.4271C37.845 14.2135 38.0625 14.4271 38.0625 14.6407L38.28 14.8543C38.28 14.6407 38.0625 14.4271 38.0625 14.4271C38.28 14.4271 38.4975 14.6407 38.4975 14.4271C38.9325 14.2135 38.9325 14.4271 38.9325 14.8543C39.15 14.6407 39.3675 14.6407 39.585 14.6407C39.585 15.0678 39.585 15.2814 39.15 15.495C38.715 15.7086 38.715 16.1358 38.9325 16.3494L39.15 16.563C39.15 16.3494 39.15 16.3494 39.15 16.1358C39.15 15.9222 39.15 15.7086 38.9325 15.495C39.15 15.495 39.15 15.495 39.15 15.495C39.3675 15.7086 39.585 15.7086 39.8025 15.495C39.8025 15.495 40.02 15.495 40.2375 15.7086C40.2375 15.7086 40.2375 15.9222 40.2375 16.1358C40.455 15.9222 40.6725 15.9222 40.89 15.7086C41.1075 15.2814 41.1075 15.0678 40.6725 14.8543C41.1075 13.9999 41.5425 13.9999 41.9775 14.4271C42.195 14.4271 42.4125 14.4271 42.63 14.4271C43.065 14.6407 43.065 14.6407 43.2825 14.2135L43.5 13.9999C43.5 14.4271 43.7175 14.2135 43.935 14.2135C44.37 14.4271 44.5875 14.4271 44.5875 13.7863C44.805 14.2135 45.0225 14.2135 45.4575 13.9999C45.675 14.4271 45.8925 14.4271 46.3275 14.2135C46.3275 14.2135 46.3275 13.9999 46.3275 13.7863C46.545 13.7863 46.7625 13.9999 46.7625 13.9999C46.7625 13.7863 46.7625 13.7863 46.98 13.5727C47.1975 13.7863 47.1975 13.9999 47.415 14.2135C47.415 13.9999 47.415 13.7863 47.415 13.7863C47.415 13.7863 47.415 13.7863 47.6325 13.7863C50.025 13.9999 50.025 14.6407 50.46 15.0678C50.46 15.2814 50.46 15.495 50.46 15.7086C50.46 15.9222 50.2425 16.1358 50.025 16.1358H50.2425H50.46L50.2425 16.3494C50.025 16.3494 50.025 16.3494 49.8075 16.3494C49.8075 16.563 49.8075 16.7766 49.8075 17.2038C50.2425 17.2038 50.46 16.7766 50.6775 16.563C50.895 16.3494 51.1125 15.9222 51.5475 16.1358C51.5475 15.9222 51.5475 15.9222 51.5475 15.7086C51.765 15.7086 51.765 15.9222 51.765 15.9222C51.9825 15.9222 51.765 15.2814 52.2 15.495C52.2 15.2814 52.2 15.0678 52.2 14.8543C52.4175 15.0678 52.4175 15.2814 52.635 15.495C53.07 15.0678 53.7225 15.2814 53.7225 15.7086C53.94 15.7086 54.1575 15.7086 54.375 15.7086C54.375 15.7086 54.5925 15.7086 54.5925 15.9222C54.5925 15.9222 54.5925 15.9222 54.5925 16.1358L54.375 16.3494C54.5925 16.3494 54.5925 16.3494 54.81 16.563H55.0275C54.81 16.7766 54.375 16.9902 54.1575 17.4174L54.375 17.631C53.94 17.8446 53.7225 17.8446 53.505 18.0582C53.7225 18.0582 53.7225 18.0582 53.94 18.0582C53.94 18.0582 53.94 18.0582 53.94 18.2718C53.7225 18.2718 53.2875 18.2718 53.07 18.4854C53.2875 18.4854 53.505 18.4854 53.7225 18.4854C53.505 18.699 53.505 18.699 53.505 18.699C53.7225 18.9126 53.7225 19.1262 53.94 19.3397C54.1575 19.1262 54.1575 18.9126 54.1575 18.9126C55.0275 19.1262 55.245 19.5533 55.4625 20.1941C55.68 20.1941 55.68 20.1941 55.8975 20.1941C56.115 20.4077 56.115 20.6213 56.115 20.8349C56.3325 20.8349 56.3325 21.0485 56.55 21.0485C56.3325 21.0485 56.3325 21.2621 56.115 21.2621C56.3325 21.4757 56.3325 21.4757 56.55 21.4757C56.115 21.9029 55.68 21.9029 55.0275 21.9029C54.375 21.9029 53.94 22.3301 53.94 22.9709C54.1575 22.9709 54.1575 22.9709 54.375 22.7573C54.1575 22.9709 54.1575 23.1845 53.94 23.3981C54.1575 23.1845 54.375 22.9709 54.375 22.7573C54.375 22.9709 54.1575 23.1845 54.1575 23.3981C54.5925 23.3981 54.81 22.7573 55.245 22.7573C55.245 23.1845 54.81 23.3981 55.0275 23.8253H55.245C55.4625 23.8253 55.4625 23.8253 55.68 23.8253C55.4625 23.8253 55.4625 24.0388 55.245 24.0388C55.68 24.0388 55.8975 24.2524 56.115 24.2524C56.3325 24.2524 56.3325 24.2524 56.55 24.0388C56.55 24.0388 56.55 23.8253 56.55 23.6117C56.3325 23.3981 56.3325 23.1845 56.55 22.9709C56.7675 22.7573 56.7675 22.7573 56.985 22.7573C57.2025 22.7573 57.2025 22.5437 57.2025 22.3301V22.1165C57.42 22.1165 57.6375 22.1165 57.6375 22.1165C57.6375 21.6893 57.6375 21.4757 57.6375 21.0485C57.6375 21.0485 57.855 21.2621 57.855 21.4757C57.855 21.2621 57.855 21.2621 57.855 21.0485C58.29 22.3301 58.29 22.3301 58.9425 22.1165L58.725 22.3301C58.9425 22.5437 59.3775 22.9709 59.3775 23.3981C59.3775 23.8253 59.595 24.0388 59.8125 24.2524C59.8125 24.466 60.03 24.466 60.2475 24.466C60.2475 24.2524 60.465 24.2524 60.465 24.0388C60.465 23.8252 60.465 23.6117 60.465 23.3981C60.6825 23.6117 60.6825 23.8253 60.9 23.8253C60.9 23.6117 60.9 23.3981 60.9 22.9709C61.1175 22.9709 61.1175 22.9709 61.335 22.9709C61.335 23.1845 61.335 23.1845 61.335 23.3981C61.77 23.3981 62.205 22.9709 62.64 23.1845H62.8575C63.075 23.3981 63.2925 23.8252 63.51 24.0388C63.7275 24.2524 64.1625 24.466 64.38 24.2524C64.38 24.466 64.1625 24.6796 64.1625 24.6796L64.38 24.8932C64.1625 25.3204 64.1625 25.3204 64.1625 25.7476C64.1625 25.9612 64.1625 26.3884 64.38 26.602V26.8156C64.38 27.0292 64.1625 27.2428 64.1625 27.4564C64.1625 27.67 63.945 27.8836 64.1625 27.8836C64.38 27.8836 64.38 28.0972 64.38 28.3108C64.38 28.3108 64.38 28.5243 64.5975 28.5243C64.5975 28.3108 64.5975 28.3108 64.815 28.3108C65.0325 28.3108 65.0325 28.3108 65.25 28.3108V28.5243C65.25 28.7379 65.25 28.7379 65.25 28.9515V29.1651C65.0325 29.3787 65.25 29.3787 65.4675 29.5923C65.685 29.5923 65.9025 29.8059 65.9025 29.8059C65.685 30.0195 65.4675 30.2331 65.25 30.4467H65.4675C65.25 30.6603 65.0325 30.6603 65.0325 30.8739C64.815 31.3011 64.5975 31.0875 64.38 31.0875C64.1625 31.0875 63.7275 31.0875 63.51 31.0875C63.2925 31.0875 63.075 31.0875 63.075 31.0875C62.8575 30.8739 62.64 30.8739 62.4225 31.0875H62.64L62.8575 31.3011L62.64 31.5147C62.4225 31.5147 62.205 31.5147 61.9875 31.3011C61.77 31.3011 61.5525 31.0875 61.1175 31.0875C60.6825 31.0875 60.465 31.0875 60.03 31.0875C60.03 30.8739 60.03 30.8739 60.03 30.6603C59.8125 30.6603 59.3775 30.4467 59.16 30.4467C59.16 30.6603 59.16 30.8739 59.16 31.0875H59.3775C59.3775 31.3011 59.595 31.3011 59.595 31.5147C59.3775 31.5147 59.16 31.5147 58.9425 31.5147C58.9425 31.9419 58.725 31.9419 58.29 31.9419C58.0725 31.9419 57.6375 31.9419 57.42 31.9419C57.2025 31.9419 56.985 32.1555 56.985 32.3691C56.985 32.7963 57.6375 32.7963 57.855 32.5827C58.0725 32.3691 58.29 32.1555 58.5075 31.9419C58.5075 31.9419 58.725 31.7283 58.9425 31.7283C58.9425 31.9419 58.9425 31.9419 58.9425 32.1555C59.16 31.9419 59.16 31.9419 59.3775 31.7283C59.3775 32.3691 58.5075 32.3691 58.5075 33.0098C58.725 33.0098 58.9425 32.7963 59.16 32.7963C59.16 33.0098 58.9425 33.0098 58.9425 33.0098C59.16 33.0098 59.3775 33.0098 59.595 32.7963C59.595 33.0098 59.3775 33.0098 59.3775 33.0098C59.16 33.0098 58.725 33.0098 58.5075 33.0098C58.29 33.0098 58.0725 32.7963 57.6375 32.7963C57.2025 33.0098 56.55 32.7963 56.115 32.5827C55.8975 32.3691 55.68 32.5827 55.4625 32.7963C55.68 32.7963 55.68 33.0098 55.8975 33.0098C55.4625 33.0098 55.0275 33.0098 54.5925 33.0098C54.5925 32.7963 54.375 32.5827 53.94 32.7963C53.7225 32.7963 53.505 32.7963 53.2875 32.5827C53.505 32.5827 53.505 32.3691 53.505 32.3691C53.2875 32.1555 52.8525 32.1555 52.635 31.9419C52.635 31.9419 52.635 31.9419 52.635 31.7283C52.8525 31.7283 53.2875 31.9419 53.505 31.9419V31.7283C53.7225 31.9419 53.7225 31.9419 53.94 32.1555C53.94 31.9419 54.1575 31.7283 53.94 31.5147C53.7225 31.0875 53.2875 31.0875 53.07 31.0875C52.8525 31.0875 52.8525 31.3011 52.635 31.3011C52.2 31.3011 51.765 31.3011 51.33 31.3011H51.1125C50.895 31.0875 50.6775 31.0875 50.46 31.3011H50.2425V31.0875C50.2425 31.0875 50.2425 31.0875 50.46 30.8739C50.2425 30.6603 50.025 30.6603 50.025 30.8739C49.8075 31.0875 49.59 31.3011 49.3725 31.3011C48.9375 31.5147 48.5025 31.7283 48.285 32.1555C48.285 32.3691 48.285 32.3691 48.0675 32.5827C48.285 32.5827 48.5025 32.5827 48.5025 32.7963L48.72 33.0098C48.72 33.0098 48.72 33.2234 48.5025 33.2234C48.0675 33.0098 47.85 33.2234 47.6325 33.6506C47.1975 33.6506 47.1975 33.8642 46.98 34.0778C46.7625 34.505 46.3275 34.9322 45.8925 34.9322C45.4575 34.9322 45.0225 35.1458 44.5875 35.3594C44.1525 35.7866 43.7175 36.2138 43.065 36.4274C42.63 36.641 41.9775 36.8546 41.5425 37.2818C40.89 37.7089 40.455 38.3497 40.455 38.9905C40.455 39.8449 40.6725 40.6993 41.1075 41.3401C41.1075 41.5537 41.325 41.5537 41.325 41.7673C41.325 42.408 41.9775 42.6216 42.4125 42.8352C43.065 43.0488 43.935 43.2624 44.805 43.476C45.24 43.6896 45.4575 43.476 45.8925 43.476C46.3275 43.476 46.7625 43.476 46.98 43.476C47.6325 43.476 48.285 43.476 48.9375 43.476C49.3725 43.476 49.59 43.476 50.025 43.476C51.33 43.476 52.635 43.6896 53.94 43.9032C55.68 43.9032 57.42 44.1168 59.16 44.1168C67.425 44.1168 75.69 44.1168 83.955 44.1168C84.1725 44.1168 84.1725 44.1168 84.39 44.1168C84.39 44.544 84.39 44.7576 84.39 45.1848C56.115 45.1848 28.0575 45.1848 0 45.1848C0 44.9712 0 44.9712 0 44.7576C0 43.9032 3.8892e-07 44.1168 0.6525 44.1168C9.3525 44.1168 18.0525 44.1168 26.535 44.1168C27.405 44.1168 28.275 44.1168 28.9275 43.9032C30.015 43.6896 31.32 43.6896 32.625 43.476C32.8425 43.476 33.2775 43.476 33.2775 43.0488C33.2775 42.6216 33.495 42.6216 33.7125 42.408C33.93 42.408 34.1475 42.408 34.365 42.1944L34.5825 41.9808C34.8 41.5537 35.0175 41.1265 35.235 40.4857C35.4525 40.4857 35.67 40.2721 35.67 40.0585C35.8875 39.4177 36.3225 38.9905 36.7575 38.7769C36.975 38.7769 37.1925 38.5633 37.1925 38.3497C37.41 38.1361 37.6275 37.7089 37.41 37.2818C37.1925 36.641 37.41 36.4274 37.6275 35.7866C37.6275 35.573 37.845 35.3594 37.845 35.3594C37.845 34.7186 37.1925 34.0778 36.54 34.0778C35.8875 34.0778 35.235 34.2914 34.5825 34.7186C34.1475 34.9322 33.93 34.9322 33.7125 34.7186C33.495 34.505 33.2775 34.505 33.06 34.2914C32.8425 34.0778 32.625 34.2914 32.19 34.2914C31.755 34.505 31.32 34.505 30.885 34.505C30.6675 34.505 30.2325 34.2914 30.015 34.0778C28.9275 33.6506 28.0575 33.0098 26.97 32.5827C26.7525 32.3691 26.3175 32.3691 26.1 32.1555C25.665 32.1555 25.23 31.9419 24.795 31.9419C23.925 31.9419 23.2725 31.7283 23.055 30.8739C23.055 30.6603 22.8375 30.6603 22.62 30.8739C22.4025 31.3011 21.9675 31.5147 21.315 31.0875C21.5325 30.8739 21.5325 30.6603 21.315 30.4467C20.88 30.4467 20.6625 30.4467 20.2275 30.2331C19.7925 30.0195 19.575 30.0195 19.14 29.8059C19.3575 29.8059 19.575 29.5923 19.7925 29.5923C20.2275 29.5923 20.6625 29.1651 21.0975 29.3787C21.0975 29.3787 21.315 29.3787 21.315 29.1651C21.5325 28.9515 21.5325 28.7379 21.5325 28.5243C21.9675 28.5243 21.9675 28.5243 21.9675 27.8836C21.75 27.2428 22.4025 27.0292 22.62 26.602C22.62 26.8156 22.62 26.8156 22.62 27.0292C22.8375 26.8156 22.8375 26.602 23.055 26.3884C23.055 26.602 23.055 26.602 23.055 26.8156C23.49 26.602 23.7075 26.602 23.925 27.0292C24.1425 27.0292 24.1425 26.8156 24.36 26.8156C24.36 27.0292 24.36 27.0292 24.36 27.2428C24.5775 27.0292 24.5775 26.8156 24.5775 26.602C24.795 26.602 25.0125 26.8156 25.23 26.8156C25.23 26.602 25.23 26.602 25.0125 26.3884C25.23 26.602 25.4475 26.602 25.665 26.8156C25.665 26.602 25.8825 26.1748 25.8825 25.9612C25.8825 26.1748 25.8825 26.1748 25.8825 26.3884L26.1 26.1748C26.1 25.9612 26.535 25.9612 26.7525 25.9612C26.7525 25.9612 26.97 26.1748 26.97 26.3884V26.602C27.405 26.602 27.405 26.602 27.84 26.8156C28.275 27.0292 28.4925 27.2428 28.9275 27.2428C29.145 27.2428 29.3625 27.4564 29.58 27.67C30.015 28.3108 30.6675 28.0972 31.1025 27.67C31.32 27.4564 31.32 27.4564 31.5375 27.67C31.755 27.8836 31.9725 27.8836 32.19 27.8836C32.625 27.8836 33.06 28.0972 33.495 28.0972C33.495 28.0972 33.7125 28.0972 33.7125 28.3108C33.93 28.5243 33.93 28.5243 34.365 28.3108C34.5825 28.7379 34.5825 28.9515 34.8 29.3787C34.8 29.3787 34.8 29.3787 35.0175 29.3787L34.8 29.1651L35.0175 28.9515C35.4525 29.1651 35.67 28.5243 36.105 28.5243C35.8875 28.5243 35.8875 28.5243 35.67 28.5243C35.4525 28.5243 35.4525 28.5243 35.235 28.5243C35.0175 28.5243 34.8 28.3107 34.8 28.0972L35.0175 27.8836C35.0175 27.8836 35.0175 28.0972 35.235 28.0972C35.235 28.0972 35.235 28.3108 35.4525 28.3108H35.67C35.67 28.0972 35.67 28.0972 35.67 27.8836C35.8875 27.8836 35.8875 28.0972 36.105 28.0972C35.8875 27.8836 35.8875 27.67 35.67 27.4564C35.67 27.4564 35.67 27.4564 35.67 27.2428C35.8875 27.2428 36.105 27.4564 36.3225 27.4564C36.105 27.2428 35.8875 27.2428 35.67 27.0292C35.67 27.0292 35.67 26.8156 35.4525 26.8156H35.67C35.8875 27.0292 36.105 27.0292 36.3225 27.2428C36.105 26.8156 35.67 26.3884 35.0175 26.1748C34.5825 26.1748 34.365 25.9612 34.1475 25.7476C33.93 25.534 33.7125 25.534 33.495 25.534C35.8875 27.0292 35.8875 27.4564 36.105 27.67ZM36.7575 33.6506H36.975C36.975 33.6506 36.975 33.437 36.7575 33.437C36.7575 33.437 36.54 33.437 36.3225 33.437C35.67 33.437 35.0175 33.2234 34.365 33.0098C34.1475 32.7963 33.7125 32.7963 33.495 32.7963C32.8425 33.0098 31.9725 33.0098 31.32 33.2234L31.1025 33.437C31.1025 33.6506 31.32 33.8642 31.32 33.8642C31.755 34.0778 32.19 34.0778 32.4075 34.2914C32.8425 34.505 33.2775 34.2914 33.7125 34.0778C33.93 33.8642 34.365 33.8642 34.8 33.8642C35.0175 33.8642 35.235 34.0778 35.4525 34.0778C36.105 34.0778 36.105 34.0778 36.3225 33.6506C36.54 33.437 36.7575 33.6506 36.7575 33.6506ZM38.715 40.4857C38.715 40.6993 38.4975 40.9129 38.4975 40.9129C38.715 40.9129 38.9325 41.1265 39.15 40.9129C39.585 40.6993 39.8025 40.4857 40.2375 40.2721C40.2375 40.2721 40.2375 40.0585 40.455 39.8449H40.6725V40.0585C40.455 40.6993 39.585 40.6993 39.15 41.1265C39.585 40.9129 40.2375 41.1265 40.455 40.6993C40.6725 40.2721 41.1075 39.8449 41.1075 39.2041C40.455 39.4177 39.8025 39.6313 39.585 40.0585C39.3675 39.6313 39.585 39.2041 39.3675 38.9905C38.9325 39.8449 38.715 40.0585 38.715 40.4857ZM40.6725 20.6213C40.89 20.6213 40.89 20.6213 40.6725 20.6213C40.6725 21.0485 40.455 21.2621 41.1075 21.4757V21.2621C41.5425 21.4757 41.5425 21.6893 41.325 22.1165L41.5425 21.9029L41.76 21.6893C41.76 21.9029 41.76 22.1165 41.76 22.3301V22.1165C41.9775 22.1165 42.195 22.1165 42.4125 22.1165C42.4125 22.1165 42.4125 22.3301 42.63 22.3301C42.63 22.1165 42.63 21.9029 42.63 21.6893L42.4125 21.9029V21.6893C42.63 21.4757 42.63 21.2621 42.4125 21.0485C42.195 21.0485 41.9775 21.0485 41.9775 21.0485C41.5425 21.0485 41.325 21.0485 40.89 21.0485C40.6725 21.0485 40.455 21.0485 40.455 21.4757C40.6725 20.8349 40.6725 20.6213 40.6725 20.6213ZM40.455 33.8642C40.2375 33.8642 40.02 33.8642 39.8025 33.8642C39.8025 33.8642 39.8025 33.8642 39.8025 34.0778C40.02 34.0778 40.02 34.0778 40.2375 34.0778C40.455 34.2914 40.455 34.505 40.6725 34.7186C40.89 35.1458 41.1075 35.3594 41.5425 35.7866C41.76 35.573 41.9775 35.3594 42.4125 34.9322C41.9775 34.7186 41.76 34.7186 41.9775 34.2914C41.9775 34.2914 41.76 33.8642 41.5425 33.8642C41.325 33.6506 41.325 34.0778 41.1075 34.0778C40.89 34.2914 40.6725 34.2914 40.455 34.2914C40.455 33.8642 40.455 33.8642 40.455 33.8642ZM44.5875 34.505C44.37 34.7186 44.1525 34.7186 43.935 34.7186C43.7175 34.7186 43.5 34.7186 43.2825 34.9322C43.065 35.1458 43.065 35.1458 42.8475 35.3594C42.8475 35.3594 42.8475 35.573 42.63 35.7866C42.8475 35.7866 43.065 36.0002 43.065 35.7866C43.5 35.573 43.935 35.1458 44.1525 34.9322C44.5875 34.505 45.0225 34.2914 45.4575 33.8642C45.4575 33.8642 45.675 33.6506 45.675 33.437C45.675 33.437 45.4575 33.437 45.4575 33.2234C45.4575 33.8642 45.0225 34.2914 44.5875 34.505ZM25.665 32.1555C26.3175 32.1555 27.1875 32.3691 27.84 32.3691C27.84 32.3691 27.84 32.3691 28.0575 32.3691C27.405 31.9419 26.97 31.3011 26.3175 31.3011C26.1 31.3011 25.8825 31.5147 25.8825 31.5147C25.8825 31.7283 25.8825 31.9419 25.665 32.1555C25.665 32.1555 25.665 31.9419 25.665 32.1555ZM50.2425 24.0388C50.2425 23.8252 50.2425 23.6117 50.2425 23.6117C50.6775 23.6117 50.6775 23.6117 50.6775 24.0388C50.895 24.0388 51.1125 23.6117 50.895 23.6117C50.46 23.3981 50.025 23.1845 49.59 22.9709L49.155 23.1845C49.155 23.6117 49.3725 24.0388 49.59 24.466C49.59 24.0388 49.59 23.6117 50.2425 24.0388ZM30.45 33.437C30.6675 33.437 30.6675 33.437 30.45 33.437C30.45 33.2234 30.45 33.0098 30.45 33.0098C30.2325 32.7963 30.015 32.5827 29.7975 32.5827C29.145 32.3691 28.71 32.1555 28.0575 31.9419C28.0575 31.9419 28.0575 31.9419 27.84 31.9419C28.71 32.5827 29.58 33.0098 30.45 33.437ZM50.46 18.4854C50.6775 18.2718 50.6775 18.0582 50.895 18.0582C51.1125 17.8446 51.1125 17.8446 51.33 17.8446L51.5475 17.631C51.5475 17.631 51.5475 17.4174 51.33 17.4174C51.1125 17.4174 51.1125 17.4174 50.895 17.4174C50.6775 17.4174 50.6775 17.631 50.6775 17.631C50.2425 17.8446 50.025 18.0582 49.59 18.2718L49.3725 18.4854C50.025 18.9126 50.2425 18.9126 50.46 18.4854ZM44.37 32.7963C44.5875 32.7963 45.0225 32.7963 45.0225 32.7963C45.4575 32.5827 45.4575 32.1555 45.24 31.7283C45.0225 31.3011 45.0225 31.3011 44.5875 31.5147C45.0225 32.1555 44.5875 32.3691 44.37 32.7963ZM41.9775 19.3397C41.9775 19.1262 41.76 19.1262 41.76 18.9126L41.5425 19.1262C41.5425 19.1262 41.5425 19.1262 41.325 19.1262C41.325 18.9126 41.1075 18.4854 41.1075 18.2718C40.89 18.4854 40.6725 18.699 40.455 18.9126H40.6725C40.6725 18.9126 40.6725 18.9126 40.89 18.9126C41.1075 19.3397 41.325 19.5533 41.5425 19.9805C41.76 19.9805 41.9775 19.5533 41.9775 19.3397ZM49.155 32.1555C48.9375 32.3691 48.72 32.3691 48.285 32.5827C48.285 32.5827 48.285 32.5827 48.285 32.7963V33.0098C48.5025 33.2234 48.5025 33.437 48.5025 33.8642C48.9375 33.2234 49.155 32.7963 49.155 32.1555ZM48.9375 26.602C48.72 26.3884 48.5025 26.1748 48.0675 26.1748C47.85 26.1748 47.85 26.1748 47.6325 26.1748C47.6325 26.3884 47.6325 26.602 48.0675 26.602C48.285 26.602 48.5025 26.8156 48.5025 26.8156C48.72 26.8156 48.72 27.0292 48.9375 27.2428C49.155 27.0292 49.155 26.8156 48.9375 26.602ZM63.075 29.1651C62.8575 28.9515 61.9875 28.9515 61.335 29.1651L61.5525 29.3787C61.77 29.1651 61.9875 29.1651 62.205 28.9515C62.205 28.9515 62.205 29.1651 61.9875 29.1651C62.205 29.3787 62.4225 29.3787 62.4225 29.5923C62.8575 29.5923 63.075 29.3787 63.075 29.1651ZM60.9 29.3787V29.1651H60.6825C60.465 29.3787 60.03 29.5923 59.8125 29.5923V29.8059H60.03C60.2475 29.8059 60.6825 29.8059 60.9 29.3787ZM41.325 36.4274C40.6725 36.8546 40.2375 38.1361 40.455 38.7769C40.6725 38.5633 40.89 38.3497 40.89 37.9225C40.89 37.7089 40.89 37.7089 41.1075 37.2818V37.0682C41.325 37.0682 41.325 36.641 41.325 36.4274ZM41.9775 30.2331C41.9775 30.0195 41.9775 29.8059 41.9775 29.5923C42.195 29.8059 42.195 30.0195 42.63 29.8059L42.8475 30.0195C42.8475 29.8059 42.63 29.5923 42.4125 29.5923C42.195 29.5923 41.9775 29.5923 41.76 29.5923C41.5425 29.5923 41.325 29.3787 41.1075 29.1651C41.325 29.5923 41.5425 29.8059 41.9775 30.2331ZM51.5475 16.9902C51.5475 16.7766 51.5475 16.563 51.5475 16.3494C51.5475 16.3494 51.33 16.1358 51.1125 16.1358C50.895 16.3494 50.46 16.7766 50.2425 16.9902C50.46 16.7766 51.1125 17.2038 51.1125 16.3494C51.33 16.7766 51.5475 16.7766 51.5475 16.9902ZM44.5875 32.1555C44.5875 31.9419 44.5875 31.7283 44.37 31.5147C43.935 31.7283 43.7175 31.9419 43.7175 32.3691C44.1525 32.3691 44.5875 32.5827 44.5875 32.1555ZM49.3725 18.4854L49.59 18.2718C49.59 18.2718 49.59 18.0582 49.8075 18.0582H49.59L49.3725 18.2718C48.9375 18.4854 48.9375 18.4854 49.3725 18.699C49.3725 18.699 49.3725 18.9126 49.59 19.1262C49.3725 18.699 49.3725 18.699 49.3725 18.4854ZM63.075 28.7379C63.075 28.7379 63.2925 28.5243 63.075 28.5243C62.8575 28.3108 61.9875 28.5243 61.9875 28.7379C62.4225 28.7379 62.8575 28.7379 63.075 28.7379ZM33.93 26.602C34.1475 26.602 34.365 26.602 34.365 26.1748C33.93 26.1748 33.495 26.1748 33.06 26.1748C33.495 26.602 33.7125 26.602 33.93 26.602ZM48.0675 22.7573C47.85 23.1845 48.0675 23.3981 48.72 23.8253C48.5025 23.3981 48.285 22.9709 48.0675 22.7573ZM28.0575 23.1845C28.0575 23.3981 28.0575 23.3981 28.0575 23.1845C27.84 23.3981 27.84 23.6117 27.84 23.8253C27.84 23.8253 27.84 24.0388 28.0575 24.0388H28.275C28.275 24.0388 28.4925 23.8253 28.71 23.6117C28.4925 23.6117 28.275 23.3981 28.0575 23.1845ZM26.3175 30.0195L26.535 30.2331C26.535 30.0195 26.3175 30.0195 26.3175 29.8059C26.535 29.8059 26.535 30.0195 26.7525 30.0195C26.7525 29.8059 26.7525 29.5923 26.7525 29.3787C26.535 29.5923 26.3175 29.8059 26.3175 30.0195ZM43.2825 18.699C43.2825 18.9126 43.2825 18.9126 43.2825 19.1262H43.5C43.5 18.9126 43.7175 18.699 43.2825 18.699C43.2825 18.4854 43.2825 18.2718 43.065 18.2718C43.065 18.4854 43.065 18.4854 43.2825 18.699ZM46.3275 18.2718C46.7625 18.0582 46.7625 17.8446 46.11 17.4174C46.3275 17.631 45.8925 18.0582 46.3275 18.2718ZM55.8975 32.1555C55.8975 32.3691 55.68 32.5827 55.68 32.5827C55.68 32.7963 55.8975 32.7963 55.8975 33.0098C56.115 32.7963 56.115 32.3691 55.8975 32.1555ZM51.9825 30.8739C52.2 30.8739 52.2 30.8739 52.4175 30.6603C52.4175 30.6603 52.2 30.4467 51.9825 30.4467C51.765 30.4467 51.5475 30.4467 51.33 30.4467C51.33 30.4467 51.33 30.4467 51.33 30.6603C51.5475 30.6603 51.765 30.6603 51.9825 30.8739ZM40.455 42.1944C40.455 41.9808 40.2375 41.9809 40.2375 41.7673L40.02 41.9808C40.02 42.1944 40.02 42.1944 40.02 42.408C40.455 42.6216 40.455 42.408 40.455 42.1944ZM41.325 37.4953C41.325 37.9225 41.325 38.3497 41.325 38.7769C41.5425 38.3497 41.5425 37.7089 41.325 37.4953ZM46.11 34.7186C45.4575 34.7186 45.24 34.9322 45.24 35.573C45.4575 35.3594 45.8925 35.1458 46.11 34.7186ZM38.28 33.2234C38.0625 32.7963 37.6275 33.0098 37.41 33.0098C37.6275 33.2234 37.845 33.437 38.28 33.2234ZM42.63 18.4854C42.63 18.2718 42.8475 18.0582 42.8475 18.0582C42.63 17.8446 42.4125 17.8446 42.4125 17.8446C42.4125 17.8446 42.4125 18.0582 42.195 18.0582C42.4125 18.2718 42.63 18.2718 42.63 18.4854ZM39.3675 28.5243C39.3675 28.5243 39.585 28.5243 39.585 28.3108C39.585 28.3108 39.585 28.0972 39.3675 28.0972C39.15 28.0972 38.9325 28.0972 38.715 28.0972V28.3108C38.9325 28.3108 39.15 28.3108 39.3675 28.5243ZM42.63 19.7669C42.195 19.7669 41.9775 19.7669 41.76 20.1941C42.4125 20.1941 42.4125 20.1941 42.63 19.7669ZM56.55 24.466C56.115 24.466 55.8975 24.2524 55.68 24.2524C55.68 24.2524 55.68 24.2524 55.68 24.466C55.68 24.6796 56.115 24.6796 56.55 24.466ZM36.105 33.0098C35.8875 32.7963 35.67 32.3691 35.235 32.5827C35.4525 33.0098 35.67 33.0098 36.105 33.0098ZM39.585 31.3011L39.8025 31.0875C39.8025 30.8739 39.585 30.8739 39.585 30.6603L39.3675 30.8739C39.3675 31.0875 39.3675 31.3011 39.585 31.3011ZM33.2775 32.3691C33.2775 32.3691 33.2775 32.1555 33.2775 32.3691C32.8425 32.1555 32.625 32.3691 32.19 32.3691V32.5827C32.625 32.5827 33.06 32.3691 33.2775 32.3691ZM45.675 18.699L45.8925 18.4854C45.8925 18.2718 45.675 18.2718 45.4575 18.2718L45.24 18.4854C45.4575 18.4854 45.675 18.4854 45.675 18.699ZM50.6775 18.9126C50.6775 19.1262 50.6775 19.1262 50.6775 18.9126C51.1125 18.699 51.1125 18.699 50.895 18.2718C50.6775 18.4854 50.46 18.699 50.6775 18.9126ZM50.2425 22.7573C50.2425 22.7573 50.46 22.7573 50.46 22.5437C50.46 22.5437 50.46 22.3301 50.2425 22.3301C50.025 22.3301 49.8075 22.3301 49.8075 22.5437C49.8075 22.7573 50.025 22.7573 50.2425 22.7573ZM45.8925 19.5533C46.11 19.3398 46.3275 19.3398 46.3275 19.1262L46.11 18.9126C45.8925 19.1262 45.8925 19.1262 45.8925 19.5533ZM62.64 30.2331C62.4225 30.2331 62.4225 30.4467 62.205 30.4467L62.4225 30.6603C62.64 30.6603 62.64 30.6603 62.8575 30.4467C62.8575 30.4467 62.8575 30.4467 62.8575 30.2331C62.8575 30.4467 62.8575 30.2331 62.64 30.2331ZM36.975 33.0098C36.975 32.7963 36.7575 32.7963 36.54 32.5827C36.54 32.5827 36.3225 32.5827 36.3225 32.7963C36.54 33.0098 36.54 33.0098 36.7575 33.2234C36.975 33.0098 36.975 33.0098 36.975 33.0098ZM35.4525 21.9029C35.4525 21.4757 35.67 21.2621 35.67 21.0485C35.4525 21.0485 35.235 21.4757 35.4525 21.9029ZM38.715 32.1555C38.4975 32.1555 38.4975 32.1555 38.28 32.1555C38.4975 32.3691 38.9325 32.3691 39.15 32.5827C38.9325 32.3691 38.715 32.1555 38.715 32.1555ZM39.15 21.0485C38.9325 20.8349 38.715 20.6213 38.715 20.4077C38.715 20.6213 38.4975 20.6213 38.4975 20.8349C38.715 20.8349 38.715 21.0485 39.15 21.0485ZM34.5825 21.0485L34.8 21.2621C34.8 21.0485 35.0175 21.0485 35.0175 20.8349C35.0175 20.8349 35.0175 20.6213 34.8 20.6213C34.8 20.8349 34.5825 21.0485 34.5825 21.0485ZM44.1525 29.5923C44.1525 29.5923 44.1525 29.3787 43.935 29.3787L43.7175 29.5923C43.7175 29.5923 43.7175 29.8059 43.935 29.8059L44.1525 29.5923ZM43.5 31.9419C43.2825 31.5147 43.065 31.3011 42.63 31.5147C43.065 31.7283 43.2825 31.7283 43.5 31.9419ZM32.625 26.3884C32.8425 26.3884 33.06 26.602 33.06 26.602V26.3884C32.8425 26.1748 32.625 26.1748 32.625 26.3884C32.4075 26.3884 32.4075 26.3884 32.625 26.3884ZM59.3775 30.6603C59.3775 30.4467 59.16 30.4467 59.16 30.4467L58.9425 30.6603C58.9425 30.8739 59.16 30.8739 59.16 31.0875C59.16 30.6603 59.3775 30.6603 59.3775 30.6603ZM34.365 32.3691C34.5825 32.5827 34.8 32.5827 34.8 32.7963C34.8 32.1555 34.8 32.1555 34.365 32.3691ZM46.545 31.5147C46.3275 31.5147 46.3275 31.5147 46.545 31.5147C46.3275 31.5147 46.3275 31.7283 46.3275 31.7283L46.545 31.9419C46.545 31.9419 46.545 31.7283 46.545 31.5147ZM37.1925 27.0292C37.1925 26.8156 37.1925 26.3884 36.7575 26.602C36.975 26.8156 36.975 27.0292 37.1925 27.0292ZM59.16 31.0875C58.725 30.8739 58.725 30.8739 58.5075 31.3011C58.725 31.3011 58.9425 31.0875 59.16 31.0875ZM53.505 30.2331C53.7225 30.0195 53.7225 29.8059 53.505 29.5923C53.505 29.8059 53.505 30.0195 53.505 30.2331Z" fill="#016837"/>
<path d="M86.13 60.5636C86.13 60.7772 86.13 61.2044 86.13 61.418L85.9125 61.6316H85.695C80.04 61.6316 74.385 61.6316 68.73 61.6316C68.5125 61.6316 68.295 61.6316 68.295 61.6316C68.295 61.418 68.295 60.9908 68.295 60.7772C68.295 60.7772 68.295 60.7772 68.5125 60.7772H68.73C74.385 60.7772 80.2575 60.7772 85.9125 60.7772C85.695 60.5636 85.9125 60.5636 86.13 60.5636Z" fill="#016837"/>
<path d="M19.7925 60.5637C19.7925 60.9908 19.7925 61.2044 19.7925 61.6316C13.7025 61.6316 7.82999 61.6316 1.73999 61.6316C1.73999 61.2044 1.73999 60.9908 1.73999 60.5637C7.61249 60.5637 13.7025 60.5637 19.7925 60.5637Z" fill="#016837"/>
<path d="M77.865 42.8352C75.9075 42.8352 73.7325 42.8352 71.775 42.8352C71.5575 42.8352 71.5575 42.8352 71.34 42.8352C71.1225 42.8352 70.905 42.6216 70.905 42.4081C70.905 42.1945 71.1225 42.1945 71.34 41.9809C71.34 41.9809 71.5575 41.9809 71.775 41.9809C75.9075 41.9809 80.04 41.9809 84.1725 41.9809C85.0425 41.9809 85.4775 41.3401 85.26 40.6993C85.0425 39.8449 83.955 39.6313 83.3025 40.2721C83.085 40.6993 82.8675 40.6993 82.65 40.4857C82.4325 40.2721 82.4325 40.0585 82.65 39.6313C83.085 38.9905 84.1725 38.7769 84.825 38.9905C85.695 39.4177 86.13 40.0585 86.13 40.9129C86.13 41.7673 85.4775 42.4081 84.6075 42.6217C84.39 42.6217 84.1725 42.6217 83.955 42.6217C81.9975 42.8352 79.8225 42.8352 77.865 42.8352Z" fill="#016837"/>
<path d="M9.78746 42.8352C7.82996 42.8352 5.65496 42.8352 3.69746 42.8352C3.04496 42.8352 2.39246 42.6216 1.95746 41.9808C1.30496 41.1265 1.52246 39.8449 2.39246 39.2041C3.26246 38.5633 4.56746 38.7769 5.21996 39.6313C5.21996 39.6313 5.21996 39.8449 5.43746 39.8449C5.43746 40.0585 5.65496 40.2721 5.43746 40.4857C5.21996 40.6993 5.00246 40.4857 4.78496 40.2721C4.56746 39.8449 4.13246 39.6313 3.47996 39.8449C3.04496 40.0585 2.60996 40.4857 2.60996 40.9129C2.60996 41.5537 3.04496 41.9808 3.69746 41.9808C3.91496 41.9808 3.91496 41.9808 4.13246 41.9808C8.26496 41.9808 12.18 41.9808 16.3125 41.9808C16.53 41.9808 16.53 41.9808 16.7475 41.9808C16.965 41.9808 17.1825 42.1944 17.1825 42.408C17.1825 42.6216 16.965 42.8352 16.7475 42.8352C16.53 42.8352 16.53 42.8352 16.3125 42.8352C13.92 42.8352 11.9625 42.8352 9.78746 42.8352Z" fill="#016837"/>
<path d="M45.24 62.0588C44.805 61.8452 44.5875 61.6316 44.1525 61.2044C43.935 60.9908 43.7175 60.9908 43.5 61.2044C43.065 61.418 42.8475 61.6316 42.4125 62.0588C42.63 61.418 42.8475 60.9908 42.8475 60.35C42.4125 59.9228 41.9775 59.7093 41.5425 59.4957C41.9775 59.4957 42.4125 59.4957 42.63 59.4957C43.065 59.4957 43.2825 59.2821 43.2825 59.0685C43.2825 58.6413 43.5 58.4277 43.7175 57.7869C43.935 58.4277 44.1525 58.8549 44.37 59.4957C45.0225 59.4957 45.4575 59.4957 46.11 59.4957C45.675 59.7093 45.4575 60.1364 45.0225 60.35C44.805 60.5636 44.805 60.5636 44.805 60.7772C45.0225 61.2044 45.24 61.6316 45.24 62.0588Z" fill="#016837"/>
<path d="M49.3725 59.7093C49.8075 59.7093 50.2425 59.7093 50.46 59.7093C50.6775 59.2821 50.6775 58.8549 50.895 58.4277C51.1125 58.8549 51.1125 59.0685 51.33 59.4957C51.33 59.7093 51.5475 59.7093 51.765 59.7093C51.9825 59.7093 52.4175 59.7093 52.635 59.7093C52.4175 59.9229 52.2 60.1365 51.9825 60.3501C51.9825 60.3501 51.765 60.5637 51.765 60.7773C51.765 60.9908 51.9825 61.418 52.2 61.8452C51.765 61.6316 51.5475 61.418 51.33 61.2044C51.33 61.2044 51.1125 61.2044 50.895 61.2044C50.6775 61.418 50.46 61.6316 50.025 61.8452C50.2425 61.418 50.2425 61.2044 50.2425 60.9908C50.2425 60.7773 50.2425 60.5637 50.025 60.3501C49.59 60.1365 49.3725 59.9229 49.3725 59.7093Z" fill="#016837"/>
<path d="M38.4975 59.7093C38.28 59.9229 38.0625 60.1365 37.845 60.3501C37.845 60.3501 37.6275 60.5637 37.6275 60.7773C37.6275 60.9909 37.845 61.418 37.845 61.8452C37.41 61.6316 37.1925 61.418 36.975 61.2045C36.7575 60.9909 36.7575 60.9909 36.54 61.2045C36.3225 61.418 36.105 61.6316 35.67 61.8452C35.67 61.418 35.8875 61.2045 35.8875 60.9909C36.105 60.7773 36.105 60.5637 35.67 60.3501C35.4525 60.1365 35.235 60.1365 35.0175 59.9229C35.235 59.9229 35.67 59.9229 35.8875 59.9229C36.105 59.9229 36.105 59.9229 36.3225 59.7093C36.3225 59.4957 36.54 59.0685 36.7575 58.6413C36.975 59.0685 36.975 59.2821 37.1925 59.7093C37.1925 59.9229 37.41 59.9229 37.6275 59.9229C37.845 59.7093 38.0625 59.7093 38.4975 59.7093Z" fill="#016837"/>
<path d="M0.323864 49.5605V47.6514H7.90909V49.5605H5.28409V56.3786H2.94886V49.5605H0.323864ZM8.80078 56.3786V47.6514H12.5678C13.2156 47.6514 13.7823 47.7693 14.2681 48.0051C14.7539 48.2409 15.1317 48.5804 15.4016 49.0235C15.6715 49.4667 15.8065 49.998 15.8065 50.6173C15.8065 51.2423 15.6673 51.7693 15.3888 52.1982C15.1133 52.6272 14.7255 52.9511 14.2255 53.1698C13.7283 53.3886 13.1474 53.498 12.4826 53.498H10.2326V51.6571H12.0053C12.2837 51.6571 12.521 51.623 12.717 51.5548C12.9158 51.4838 13.0678 51.3715 13.1729 51.2181C13.2809 51.0647 13.3349 50.8644 13.3349 50.6173C13.3349 50.3673 13.2809 50.1642 13.1729 50.0079C13.0678 49.8488 12.9158 49.7323 12.717 49.6585C12.521 49.5818 12.2837 49.5434 12.0053 49.5434H11.1701V56.3786H8.80078ZM13.9144 52.373L16.0962 56.3786H13.5224L11.3917 52.373H13.9144ZM16.8164 56.3786V47.6514H23.1062V49.5605H19.1857V51.0605H22.7823V52.9696H19.1857V54.4696H23.0891V56.3786H16.8164ZM24.2812 56.3786V47.6514H30.571V49.5605H26.6506V51.0605H30.2472V52.9696H26.6506V54.4696H30.554V56.3786H24.2812ZM38.8413 50.3786C38.8185 50.0946 38.712 49.873 38.5217 49.7139C38.3342 49.5548 38.0487 49.4752 37.6651 49.4752C37.4208 49.4752 37.2205 49.5051 37.0643 49.5647C36.9109 49.6215 36.7972 49.6997 36.7234 49.7991C36.6495 49.8985 36.6112 50.0122 36.6083 50.14C36.6026 50.2451 36.6211 50.3403 36.6637 50.4255C36.7092 50.5079 36.7802 50.5832 36.8768 50.6514C36.9734 50.7167 37.0969 50.7764 37.2475 50.8304C37.3981 50.8843 37.5771 50.9326 37.7844 50.9752L38.5004 51.1286C38.9833 51.2309 39.3967 51.3659 39.7404 51.5335C40.0842 51.7011 40.3654 51.8985 40.5842 52.1258C40.8029 52.3502 40.9634 52.6031 41.0657 52.8843C41.1708 53.1656 41.2248 53.4724 41.2276 53.8048C41.2248 54.3786 41.0813 54.8644 40.7972 55.2622C40.5131 55.6599 40.1069 55.9625 39.5785 56.1698C39.0529 56.3772 38.4208 56.4809 37.6822 56.4809C36.9237 56.4809 36.2617 56.3687 35.6964 56.1443C35.1339 55.9198 34.6964 55.5747 34.3839 55.1088C34.0742 54.64 33.918 54.0406 33.9151 53.3105H36.1651C36.1793 53.5775 36.2461 53.8019 36.3654 53.9838C36.4847 54.1656 36.6523 54.3034 36.8683 54.3971C37.087 54.4909 37.3469 54.5377 37.6481 54.5377C37.9009 54.5377 38.1126 54.5065 38.283 54.444C38.4535 54.3815 38.5827 54.2948 38.6708 54.184C38.7589 54.0732 38.8043 53.9468 38.8072 53.8048C38.8043 53.6713 38.7603 53.5548 38.6751 53.4554C38.5927 53.3531 38.4563 53.2622 38.266 53.1826C38.0756 53.1002 37.8185 53.0235 37.4947 52.9525L36.6254 52.765C35.8526 52.5974 35.2433 52.3176 34.7972 51.9255C34.354 51.5306 34.1339 50.9923 34.1367 50.3105C34.1339 49.7565 34.2816 49.2721 34.5799 48.8573C34.881 48.4397 35.2972 48.1144 35.8285 47.8815C36.3626 47.6485 36.9748 47.5321 37.6651 47.5321C38.3697 47.5321 38.979 47.65 39.4933 47.8857C40.0075 48.1215 40.4038 48.4539 40.6822 48.8829C40.9634 49.309 41.1055 49.8076 41.1083 50.3786H38.8413ZM42.1289 56.3786V47.6514H48.4187V49.5605H44.4982V51.0605H48.0948V52.9696H44.4982V54.4696H48.4016V56.3786H42.1289ZM49.5938 56.3786V47.6514H53.3608C54.0085 47.6514 54.5753 47.7693 55.0611 48.0051C55.5469 48.2409 55.9247 48.5804 56.1946 49.0235C56.4645 49.4667 56.5994 49.998 56.5994 50.6173C56.5994 51.2423 56.4602 51.7693 56.1818 52.1982C55.9063 52.6272 55.5185 52.9511 55.0185 53.1698C54.5213 53.3886 53.9403 53.498 53.2756 53.498H51.0256V51.6571H52.7983C53.0767 51.6571 53.3139 51.623 53.5099 51.5548C53.7088 51.4838 53.8608 51.3715 53.9659 51.2181C54.0739 51.0647 54.1278 50.8644 54.1278 50.6173C54.1278 50.3673 54.0739 50.1642 53.9659 50.0079C53.8608 49.8488 53.7088 49.7323 53.5099 49.6585C53.3139 49.5818 53.0767 49.5434 52.7983 49.5434H51.9631V56.3786H49.5938ZM54.7074 52.373L56.8892 56.3786H54.3153L52.1847 52.373H54.7074ZM59.7262 47.6514L61.516 53.8048H61.5842L63.3739 47.6514H66.0501L63.1694 56.3786H59.9308L57.0501 47.6514H59.7262ZM69.2599 47.6514V56.3786H66.8906V47.6514H69.2599ZM78.5305 50.9241H76.1271C76.1101 50.7252 76.0646 50.5448 75.9908 50.3829C75.9197 50.221 75.8203 50.0818 75.6925 49.9653C75.5675 49.846 75.4155 49.7551 75.2365 49.6926C75.0575 49.6272 74.8544 49.5946 74.6271 49.5946C74.2294 49.5946 73.8928 49.6911 73.6172 49.8843C73.3445 50.0775 73.1371 50.3545 72.995 50.7153C72.8558 51.0761 72.7862 51.5093 72.7862 52.015C72.7862 52.5491 72.8572 52.9965 72.9993 53.3573C73.1442 53.7153 73.353 53.9852 73.6257 54.167C73.8984 54.346 74.2266 54.4355 74.6101 54.4355C74.8288 54.4355 75.0249 54.4085 75.1982 54.3545C75.3714 54.2977 75.522 54.2167 75.6499 54.1116C75.7777 54.0065 75.8814 53.8801 75.9609 53.7323C76.0433 53.5818 76.0987 53.4127 76.1271 53.2252L78.5305 53.2423C78.5021 53.6116 78.3984 53.988 78.2195 54.3715C78.0405 54.7522 77.7862 55.1045 77.4567 55.4284C77.13 55.7494 76.7251 56.0079 76.2422 56.2039C75.7592 56.4 75.1982 56.498 74.5589 56.498C73.7578 56.498 73.0391 56.3261 72.4027 55.9823C71.7692 55.6386 71.2678 55.1329 70.8984 54.4653C70.532 53.7977 70.3487 52.9809 70.3487 52.015C70.3487 51.0434 70.5362 50.2252 70.9112 49.5605C71.2862 48.8929 71.7919 48.3886 72.4283 48.0477C73.0646 47.7039 73.7749 47.5321 74.5589 47.5321C75.1101 47.5321 75.6172 47.6073 76.0803 47.7579C76.5433 47.9085 76.9496 48.1286 77.299 48.4184C77.6484 48.7054 77.9297 49.059 78.1428 49.4795C78.3558 49.9 78.4851 50.3815 78.5305 50.9241ZM79.6055 56.3786V47.6514H85.8952V49.5605H81.9748V51.0605H85.5714V52.9696H81.9748V54.4696H85.8782V56.3786H79.6055Z" fill="#016837"/>
<path d="M13.2675 17.4174C13.485 17.2038 13.7025 17.2038 13.92 16.9902C14.355 17.8446 14.5725 18.2718 14.79 19.1262C13.2675 19.9806 12.615 20.4078 11.0925 21.4757C10.6575 20.6214 10.44 20.4078 9.7875 19.5534C10.005 19.3398 10.2225 19.3398 10.44 19.1262C9.3525 17.2038 8.9175 16.3494 7.83 14.6407C7.6125 14.8543 7.395 14.8543 7.1775 15.0679C6.96 14.4271 6.7425 13.9999 6.3075 13.3591C9.35249 11.2232 10.6575 10.1552 13.2675 8.66002C14.1375 8.87361 14.5725 8.87361 15.4425 9.30081C15.8775 10.3688 15.8775 10.796 16.3125 11.6504C16.095 12.0775 16.095 12.2911 15.8775 12.7183C16.3125 12.7183 16.3125 12.9319 16.7475 12.9319C16.965 13.7863 17.1825 14.2135 17.6175 15.0679C17.835 14.8543 18.0525 14.8543 18.27 14.8543C18.4875 15.7087 18.705 16.1359 19.14 16.9902C17.835 17.631 17.1825 18.0582 16.095 18.699C15.4425 17.4174 15.225 16.563 14.5725 15.2815C14.355 15.2815 14.355 15.2815 14.1375 15.0679C13.485 15.4951 13.2675 15.4951 12.8325 15.9223C12.8325 16.3494 12.8325 16.7766 13.2675 17.4174ZM11.5275 13.7863C12.18 13.3591 12.3975 13.1455 13.05 12.9319C13.05 12.7183 13.2675 12.7183 13.2675 12.5047C13.05 12.0775 13.05 12.0775 13.05 11.6504C12.8325 11.6504 12.8325 11.6504 12.615 11.6504C11.9625 12.0775 11.745 12.2911 11.0925 12.5047C11.31 13.1455 11.31 13.3591 11.5275 13.7863Z" fill="#EA4200"/>
<path d="M25.23 3.53371C25.4475 4.38809 25.665 4.81528 25.8825 5.66966C25.665 5.66966 25.4475 5.66966 25.23 5.88325C26.7525 7.80561 27.405 8.65999 28.9275 10.5824C29.145 10.5824 29.3625 10.5823 29.58 10.3688C29.7975 11.2231 29.7975 11.6503 30.015 12.5047C28.4925 12.9319 27.6225 13.1455 26.1 13.5727C25.8825 12.7183 25.665 12.2911 25.4475 11.4367C25.665 11.4367 25.665 11.4367 25.8825 11.2231C25.665 11.0095 25.665 11.0095 25.665 10.7959C24.5775 11.2231 24.1425 11.2231 23.055 11.6503C23.055 11.8639 23.055 11.8639 23.055 12.0775C23.2725 12.0775 23.2725 12.0775 23.49 11.8639C23.7075 12.7183 23.925 13.1455 24.1425 13.9999C22.62 14.6407 21.9675 14.8543 20.445 15.495C20.2275 14.6407 20.01 14.2135 19.575 13.3591C19.7925 13.1455 20.01 13.1455 20.2275 13.1455C20.445 10.5823 20.445 9.30078 20.88 6.95123C20.6625 6.95123 20.6625 7.16483 20.445 7.16483C20.2275 6.31044 20.01 5.88325 19.7925 5.02887C21.75 4.60168 22.8375 4.17449 25.23 3.53371ZM23.055 9.94156C23.49 9.72797 23.925 9.72797 24.36 9.51437C23.925 9.08718 23.7075 8.65999 23.2725 8.2328C23.2725 8.87359 23.2725 9.08718 23.055 9.94156Z" fill="#EA4200"/>
<path d="M37.41 11.2232C36.105 9.5144 35.4525 8.66002 34.1475 7.16486C34.365 8.01924 34.365 8.44643 34.5825 9.30081C34.8 9.30081 35.0175 9.30081 35.235 9.30081C35.4525 10.1552 35.4525 10.5824 35.4525 11.6504C33.93 11.864 33.06 12.0775 31.5375 12.2911C31.32 11.4368 31.32 11.0096 31.1025 10.1552C31.32 10.1552 31.5375 10.1552 31.755 9.9416C31.32 7.80564 31.1025 6.73767 30.6675 4.60171C30.45 4.60171 30.2325 4.60171 30.015 4.81531C29.7975 3.96093 29.7975 3.53374 29.58 2.67936C31.1025 2.25217 31.9725 2.25216 33.495 2.03857C35.0175 3.74733 35.67 4.60171 37.1925 6.09688C37.1925 5.2425 36.975 4.60171 36.975 3.74733C36.7575 3.74733 36.54 3.74733 36.3225 3.74733C36.3225 2.89295 36.105 2.46576 36.105 1.39778C37.845 1.18419 38.715 1.18419 40.455 1.18419C40.455 2.03857 40.455 2.46576 40.6725 3.32014C40.455 3.32014 40.2375 3.32014 40.02 3.32014C40.2375 5.45609 40.2375 6.52407 40.455 8.87362C40.6725 8.87362 40.89 8.87362 41.1075 8.87362C41.1075 9.728 41.1075 10.1552 41.1075 11.2232C39.3675 11.0096 38.715 11.2232 37.41 11.2232Z" fill="#EA4200"/>
<path d="M41.7599 0.970581C44.3699 0.970581 45.6749 0.970581 48.5024 1.39777C49.1549 2.03856 49.3724 2.46575 50.0249 3.10653C49.8074 5.66968 49.5899 6.95125 49.3724 9.51439C48.7199 10.1552 48.2849 10.3688 47.6324 11.0096C45.2399 10.796 44.1524 10.796 41.9774 10.796C41.9774 9.94158 41.9774 9.51439 41.9774 8.44642C42.1949 8.44642 42.4124 8.44642 42.6299 8.44642C42.6299 6.31046 42.6299 5.24249 42.4124 3.10653C42.1949 3.10653 41.9774 3.10653 41.7599 3.10653C41.7599 2.46575 41.7599 2.03856 41.7599 0.970581ZM45.0224 8.66001C45.4574 8.66001 45.8924 8.66001 46.3274 8.66001C46.5449 8.44642 46.5449 8.44642 46.5449 8.44642C46.7624 6.52406 46.7624 5.66968 46.7624 3.74732C46.5449 3.53372 46.5449 3.53372 46.5449 3.32013C45.8924 3.32013 45.6749 3.32013 45.0224 3.10653C45.2399 5.45608 45.0224 6.52406 45.0224 8.66001Z" fill="#EA4200"/>
<path d="M58.7249 8.87361C58.5074 9.72799 58.5074 10.1552 58.2899 11.0096C58.5074 11.0096 58.7249 11.2232 58.9424 11.2232C58.7249 12.0775 58.5074 12.5047 58.2899 13.3591C56.7674 12.9319 55.8974 12.7183 54.1574 12.2911C54.3749 11.4368 54.3749 11.0096 54.5924 10.1552C54.8099 10.1552 55.0274 10.1552 55.2449 10.3688C55.4624 9.51439 55.4624 9.0872 55.6799 8.23282C54.5924 6.73766 53.7224 5.88327 52.6349 4.38811C52.1999 4.38811 51.9824 4.17451 51.5474 4.17451C51.7649 3.32013 51.7649 2.89294 51.7649 2.03856C53.9399 2.46575 55.2449 2.67934 57.4199 3.10654C57.2024 3.96092 57.2024 4.38811 56.9849 5.24249C56.7674 5.24249 56.7674 5.24249 56.5499 5.02889C56.9849 5.66968 57.2024 5.88327 57.6374 6.52406C58.2899 6.31046 58.7249 6.09687 59.3774 5.88327C59.1599 5.88327 59.1599 5.88327 58.9424 5.66968C59.1599 4.8153 59.1599 4.38811 59.3774 3.53373C61.5524 4.17451 62.6399 4.38811 64.5974 5.24249C64.3799 6.09687 64.1624 6.52406 63.9449 7.37844C63.5099 7.16485 63.5099 7.16485 63.0749 7.16485C61.3349 7.59204 60.4649 8.01923 58.7249 8.87361Z" fill="#EA4200"/>
<path d="M65.9024 6.0969C66.3374 5.02892 66.3374 4.38814 66.7724 3.32016C68.0774 3.96095 68.9474 4.17454 70.2524 4.81533C69.8174 5.8833 69.5999 6.52409 69.1649 7.59207C67.8599 8.01926 67.2074 8.23285 66.1199 8.44645C66.3374 7.59207 66.5549 7.16488 66.7724 6.31049C66.5549 6.31049 66.3374 6.0969 65.9024 6.0969Z" fill="#EA4200"/>
<path d="M73.9499 16.563C72.8624 15.7087 72.2099 15.4951 71.1224 14.6407C70.6874 13.7863 70.4699 13.1455 70.0349 12.2911C70.4699 11.2232 70.6874 10.796 70.9049 9.72799C71.7749 9.51439 72.2099 9.51439 73.0799 9.3008C74.8199 10.5824 75.9074 11.2232 77.6474 12.7183C78.0824 13.7863 78.2999 14.4271 78.5174 15.4951C78.2999 16.1358 78.0824 16.3494 77.8649 16.9902C76.7774 16.1358 76.3424 15.7087 75.2549 14.8543C75.4724 14.6407 75.4724 14.4271 75.6899 13.9999C75.6899 13.7863 75.4724 13.7863 75.4724 13.5727C74.8199 13.1455 74.6024 12.9319 73.9499 12.5047C73.7324 12.5047 73.7324 12.5047 73.5149 12.5047C73.2974 12.9319 73.2974 12.9319 73.0799 13.3591C73.0799 13.5727 73.2974 13.5727 73.2974 13.7863C74.3849 14.6407 75.0374 15.0679 76.1249 15.9223C76.5599 16.9902 76.7774 17.4174 76.9949 18.2718C76.5599 19.1262 76.3424 19.5534 75.6899 20.4078C74.8199 20.4078 74.3849 20.6213 73.2974 20.8349C71.7749 19.767 70.9049 19.3398 69.1649 18.2718C68.9474 17.2038 68.73 16.7766 68.295 15.9223C68.5125 15.2815 68.73 14.8543 68.9475 14.2135C70.0349 14.8543 70.6874 15.0679 71.7749 15.9223C71.5574 16.3494 71.5574 16.3494 71.3399 16.7766C71.7749 16.7766 71.7749 16.7766 71.7749 16.9902C72.4274 17.4174 72.6449 17.4174 73.0799 17.8446C73.2974 17.8446 73.2974 17.8446 73.5149 17.8446C73.7324 17.631 73.7324 17.4174 73.9499 16.9902C73.9499 16.9902 73.9499 16.7766 73.9499 16.563Z" fill="#EA4200"/>
</svg>
