<svg width="80" height="80" viewBox="0 0 80 80" fill="none" xmlns="http://www.w3.org/2000/svg">
<rect width="80" height="80" rx="40" fill="#0C4B36"/>
<g clip-path="url(#clip0_76_408)">
<path d="M44.2886 38.1597C44.8697 37.3432 45.3347 36.6627 45.9158 35.9822C46.7295 34.8935 47.6593 34.3491 48.9379 34.213C49.8677 34.0769 50.7976 34.3491 51.6112 34.8935C52.1924 35.3017 52.7735 35.8461 53.2385 36.3905C56.1443 39.3846 59.0501 42.5148 61.8397 45.645C63.1182 47.0059 64.3968 48.3669 65.5591 49.5918C65.6753 49.7278 65.7916 49.7278 65.9078 50C47.1944 50 28.5972 50 10 50C10.1162 49.8639 10.1162 49.8639 10.2325 49.7278C14.0681 45.645 18.02 41.5621 21.8557 37.3432C22.9018 36.2544 23.9479 35.1657 24.994 33.9408C26.6212 32.1716 28.2485 30.5384 29.8757 28.7692C31.8517 26.7277 34.6413 26.8638 36.501 29.0414C38.9419 31.8994 41.3828 34.7574 43.8236 37.6154C44.0561 37.8876 44.1723 38.0237 44.2886 38.1597ZM46.3808 46.0533C46.2645 45.9172 46.1483 45.7811 46.0321 45.645C43.5912 42.787 41.1503 39.929 38.7094 37.071C37.3146 35.4378 35.8036 33.6686 34.4088 32.0355C33.8277 31.355 32.8978 31.2189 32.3166 31.8994C31.3868 32.852 30.5731 33.6686 29.6433 34.6213C28.8297 35.4378 28.1323 36.2544 27.3186 37.071C24.994 39.5207 22.7856 41.8343 20.4609 44.284C19.8798 44.8284 19.4148 45.3728 18.7174 46.0533C28.016 46.0533 37.1984 46.0533 46.3808 46.0533ZM46.7295 40.8817C47.5431 41.8343 48.3567 42.787 49.1703 43.8757C48.5892 44.5562 47.8918 45.3728 47.3106 46.0533C50.5651 46.0533 53.8196 46.0533 57.0741 46.0533C57.0741 45.9172 56.9579 45.9172 56.9579 45.9172C54.6333 43.4675 52.3086 41.0177 49.984 38.568C49.519 38.1597 48.8216 38.0237 48.4729 38.568C48.008 39.2485 47.4268 40.0651 46.7295 40.8817Z" fill="white"/>
<path d="M66.2565 42.1066C63.2345 38.9764 60.3287 35.8462 57.4228 32.716C57.4228 32.716 57.4228 32.716 57.3066 32.716C57.3066 33.2604 57.4228 33.8048 57.4228 34.3491C57.4228 35.0296 57.5391 34.8935 56.9579 35.0296C56.2605 35.1657 55.5631 35.3018 54.7495 35.3018C54.517 32.5799 54.4008 29.7219 54.1683 27C54.2846 27 54.4008 27 54.6333 27C56.3768 27.1361 58.2365 27.2722 59.98 27.5444C60.3287 27.5444 60.6774 27.5444 61.0261 27.6805C61.1423 27.6805 61.2585 27.8166 61.2585 27.9527C61.2585 28.9053 61.1423 29.7219 61.0261 30.6746C61.0261 30.8107 60.9098 30.8107 60.7936 30.8107C60.4449 30.8107 60.0962 30.8107 59.6313 30.8107C62.4208 33.8048 65.2104 36.6628 68 39.6569C67.4188 40.4734 66.8377 41.29 66.2565 42.1066Z" fill="white"/>
</g>
<defs>
<clipPath id="clip0_76_408">
<rect width="55" height="55" fill="white" transform="translate(13 12)"/>
</clipPath>
</defs>
</svg>
