<svg xmlns="http://www.w3.org/2000/svg" xmlns:xlink="http://www.w3.org/1999/xlink" version="1.1" viewBox="0 0 172 172"><g fill="none" fill-rule="nonzero" stroke="none" stroke-width="1" stroke-linecap="butt" stroke-linejoin="miter" stroke-miterlimit="10" stroke-dasharray="" stroke-dashoffset="0" font-family="none" font-weight="none" font-size="none" text-anchor="none" style="mix-blend-mode: normal"><path d="M0,172v-172h172v172z" fill="none"/><g fill="#fff"><path d="M17.2,17.2v37.84c-0.03509,2.48118 1.2685,4.78904 3.41161,6.03987c2.1431,1.25083 4.79369,1.25083 6.93679,0c2.1431,-1.25083 3.4467,-3.55869 3.41161,-6.03987v-14.35125l32.97563,32.97562c1.72562,1.79734 4.28808,2.52135 6.69912,1.89282c2.41104,-0.62853 4.29391,-2.5114 4.92245,-4.92245c0.62853,-2.41104 -0.09548,-4.9735 -1.89282,-6.69912l-32.97562,-32.97563h14.35125c2.48118,0.03509 4.78904,-1.2685 6.03987,-3.41161c1.25083,-2.1431 1.25083,-4.79369 0,-6.93679c-1.25083,-2.1431 -3.55869,-3.4467 -6.03987,-3.41161zM116.96,17.2c-2.48118,-0.03509 -4.78904,1.2685 -6.03987,3.41161c-1.25083,2.1431 -1.25083,4.79369 0,6.93679c1.25083,2.1431 3.55869,3.4467 6.03987,3.41161h14.35125l-32.97562,32.97563c-1.79734,1.72562 -2.52135,4.28808 -1.89282,6.69912c0.62853,2.41104 2.5114,4.29391 4.92245,4.92245c2.41104,0.62853 4.9735,-0.09548 6.69912,-1.89282l32.97563,-32.97562v14.35125c-0.03509,2.48118 1.2685,4.78904 3.41161,6.03987c2.1431,1.25083 4.79369,1.25083 6.93679,0c2.1431,-1.25083 3.4467,-3.55869 3.41161,-6.03987v-37.84zM68.66563,96.25281c-1.78741,0.05326 -3.48388,0.80028 -4.73,2.08281l-32.97563,32.97562v-14.35125c0.02542,-1.85848 -0.7021,-3.6482 -2.01701,-4.96184c-1.3149,-1.31364 -3.10532,-2.03944 -4.96378,-2.01223c-3.79707,0.05565 -6.83116,3.17694 -6.77922,6.97406v37.84h37.84c2.48118,0.03509 4.78904,-1.2685 6.03987,-3.41161c1.25083,-2.1431 1.25083,-4.79369 0,-6.93679c-1.25083,-2.1431 -3.55869,-3.4467 -6.03987,-3.41161h-14.35125l32.97562,-32.97563c2.03483,-1.97794 2.64666,-5.00221 1.54067,-7.61556c-1.10599,-2.61334 -3.7029,-4.27965 -6.53941,-4.196zM103.1261,96.25281c-2.79841,0.00347 -5.31595,1.7014 -6.36771,4.29465c-1.05175,2.59324 -0.42817,5.56514 1.57724,7.51691l32.97562,32.97563h-14.35125c-2.48118,-0.03509 -4.78904,1.2685 -6.03987,3.41161c-1.25083,2.1431 -1.25083,4.79369 0,6.93679c1.25083,2.1431 3.55869,3.4467 6.03987,3.41161h37.84v-37.84c0.02542,-1.85848 -0.7021,-3.6482 -2.01701,-4.96184c-1.3149,-1.31364 -3.10532,-2.03944 -4.96378,-2.01223c-3.79707,0.05565 -6.83116,3.17694 -6.77922,6.97406v14.35125l-32.97563,-32.97562c-1.29693,-1.33318 -3.07834,-2.08452 -4.93828,-2.08281z"/></g></g></svg>