<svg width="80" height="80" viewBox="0 0 80 80" fill="none" xmlns="http://www.w3.org/2000/svg">
<rect width="80" height="80" rx="40" fill="#0C4B36"/>
<path d="M40 35.126C40.5 34.326 40.9 33.526 41.4 32.826C42.8 30.326 44.3 27.826 45.7 25.426C47 23.226 48.2 20.926 49.5 18.726C50.2 17.526 50.9 16.326 51.7 15.226C52.2 14.426 53 14.126 54 14.026C54.7 13.926 55.2 14.126 55.7 14.426C56.4 14.826 57.2 15.326 57.9 15.726C58 15.826 58.1 15.926 58.2 16.026C58.8 17.126 59.1 18.326 58.5 19.526C57.7 21.026 56.8 22.626 55.9 24.126C54.6 26.426 53.3 28.626 51.9 30.926C50.3 33.626 48.7 36.426 47.1 39.126C47.1 39.126 47.1 39.126 47.1 39.226C47.8 39.626 48.4 40.026 49.1 40.426C49.8 40.826 50 41.426 49.6 42.126C48.9 43.326 48.3 44.426 47.6 45.526C47.1 46.326 47 47.226 46.9 48.126C46.6 49.826 46.4 51.626 46.4 53.326C46.4 56.126 46.9 58.826 48 61.426C48.5 62.626 49.2 63.726 50.1 64.626C50.5 65.126 50.6 65.726 50.3 66.326C50 66.826 49.5 66.926 48.8 66.726C47.3 66.326 45.8 65.926 44.3 65.426C39.8 64.026 35.5 62.326 31.4 60.026C28.4 58.326 25.6 56.426 23 54.226C20.3 52.026 17.8 49.726 15.4 47.326C15 46.926 14.9 46.426 15.1 46.026C15.2 45.426 15.7 45.226 16.2 45.226C17.2 45.326 18.2 45.426 19.2 45.426C21.8 45.426 24.2 44.626 26.6 43.526C28.7 42.526 30.6 41.226 32.4 39.726C32.9 39.326 33.4 38.826 33.9 38.326C34 38.226 34.1 38.026 34.2 37.926C34.8 36.826 35.5 35.626 36.1 34.526C36.2 34.326 36.3 34.126 36.5 33.926C36.9 33.526 37.4 33.526 37.9 33.726C38.4 34.026 39 34.326 39.5 34.626C39.6 34.926 39.8 35.026 40 35.126ZM39.8 61.326C39.2 59.726 39 58.226 39 56.626C39 55.026 39.2 53.326 39.6 51.726C39.9 50.526 40.2 49.326 40.6 48.226C40.8 47.626 41.5 47.326 42.2 47.526C42.8 47.726 43.1 48.326 42.8 49.026C42.8 49.126 42.7 49.326 42.6 49.426C42 51.526 41.4 53.626 41.3 55.826C41.2 57.826 41.4 59.626 42.4 61.426C42.8 62.026 43.1 62.826 43.9 62.926C44.1 62.926 44.2 63.026 44.4 63.026C45 63.226 45.6 63.426 46.3 63.626C46.2 63.426 46.2 63.326 46.1 63.226C45.4 61.826 44.9 60.426 44.5 58.926C43.5 54.826 43.7 50.826 44.5 46.726C44.6 46.426 44.5 46.226 44.2 46.126C44.1 46.126 44 46.026 44 46.026C41.8 44.726 39.6 43.426 37.4 42.226C36.6 41.726 35.7 41.226 34.9 40.826C30.4 44.826 25.3 47.726 19.1 48.026C19.2 48.126 19.3 48.226 19.4 48.326C20.2 49.026 21 49.726 21.7 50.426C22.1 50.826 22.5 50.926 23 50.926C24.4 50.826 25.8 50.426 27.1 49.826C28.8 49.026 30.2 47.826 31.4 46.326C31.8 45.726 32.6 45.726 33.2 46.126C33.7 46.526 33.7 47.126 33.2 47.726C32.8 48.226 32.4 48.726 31.9 49.226C30.8 50.326 29.6 51.226 28.2 51.926C27.2 52.426 26.1 52.826 24.9 53.126C26.8 54.626 28.7 55.926 30.7 57.126C30.8 56.926 31 56.626 31.1 56.426C32.1 54.726 33 53.026 34 51.426C34.1 51.226 34.4 50.926 34.7 50.826C35.2 50.626 35.6 50.926 36 51.326C36.3 51.726 36.3 52.126 36.1 52.526C35.7 53.226 35.3 54.026 34.8 54.726C34.1 55.926 33.5 57.026 32.8 58.226C35 59.326 37.3 60.426 39.8 61.326ZM44.9 38.026C45 37.826 45.1 37.726 45.1 37.626C46.5 35.126 47.9 32.726 49.4 30.226C50.6 28.126 51.8 26.026 53.1 23.926C54.1 22.226 55.1 20.626 56.1 18.926C56.5 18.226 56.5 17.826 55.8 17.226C55.4 16.926 55 16.726 54.5 16.526C53.8 16.226 53.4 16.426 53 17.026C52 18.926 50.9 20.826 49.8 22.626C48.6 24.726 47.4 26.826 46.1 29.026C45 30.926 43.9 32.726 42.9 34.626C42.6 35.226 42.3 35.726 41.9 36.326C43 36.926 44 37.426 44.9 38.026ZM36.4 38.726C39.5 40.526 42.5 42.226 45.6 44.026C46 43.326 46.4 42.626 46.9 41.826C43.8 40.026 40.8 38.326 37.7 36.526C37.3 37.326 36.9 38.026 36.4 38.726Z" fill="white"/>
</svg>
