<svg width="80" height="80" viewBox="0 0 80 80" fill="none" xmlns="http://www.w3.org/2000/svg">
<rect width="80" height="80" rx="40" fill="#0C4B36"/>
<path d="M41.2 54.3C40 55 38.9 55.7 37.8 56.3C35.1 57.7 32.2 58.4 29.3 58.8C28 59 26.7 59.1 25.4 59.1C24.4 59.2 23.6 58.6 23.3 57.8C23 56.9 23.3 56.1 24.1 55.4C24.8 54.8 25.5 54.3 26.1 53.8C25 53.2 24 52.6 22.9 52C22.2 51.6 21.4 51.4 20.6 51.4C18.9 51.4 17.2 51.4 15.4 51.4C14 51.4 13 50.6 12.9 49.3C12.8 48.1 13.6 47.1 14.9 46.8C16.6 46.5 18 45.9 19.2 44.6C20 43.9 21 43.5 22 43.1C22.8 42.8 23.7 42.5 24.5 42.3C24.8 42.2 24.9 42.1 24.9 41.7C25 39.6 25.1 37.5 25.2 35.4C25.2 35.2 25.1 35 24.9 34.9C24.3 34.4 23.7 33.9 23 33.5C22.8 33.4 22.5 33.3 22.3 33.3C20.1 33.3 18 33.3 15.9 32.7C15.6 32.6 15.4 32.5 15 32.4C15.2 31.9 15.4 31.3 15.5 30.8C17.4 31.4 19.2 31.7 21.2 31.6C20.1 30.1 19.3 28.5 18.7 26.7C19.2 26.5 19.7 26.4 20.3 26.2C21.4 28.8 22.6 31.4 25.2 33C25.2 32.3 25.3 31.8 25.3 31.2C25.4 29.7 25.5 28.2 25.5 26.7C25.5 25.9 25.8 25.3 26.5 25C27.5 24.5 28.6 24.1 29.7 23.9C34.8 22.9 40 22.8 45.2 23.3C47.1 23.5 49.1 23.7 50.9 24.4C51.3 24.5 51.6 24.7 52 24.9C52.7 25.3 53.1 25.9 53.2 26.8C53.4 31.4 53.7 36 53.9 40.6C53.9 41.1 54 41.3 54.5 41.5C56.3 42.2 57.6 43.4 58.6 45C58.8 45.3 59 45.5 59.3 45.5C60.9 45.7 62.5 45.9 64 46.1C65.2 46.3 66 47.3 65.9 48.5C65.8 49.7 64.9 50.5 63.6 50.6C61.9 50.6 60.3 50.9 58.8 51.4C58.7 51.4 58.6 51.5 58.4 51.6C59.2 52.1 60 52.5 60.7 53C61.5 53.5 61.8 54.4 61.5 55.2C61.2 56.1 60.5 56.6 59.6 56.6C59 56.6 58.4 56.4 57.9 56.2C55.8 55.4 53.8 54.7 51.6 54.4C51.4 54.4 51.2 54.3 51 54.3C51.1 54.5 51.2 54.6 51.2 54.8C51.7 56.1 50.8 57.5 49.4 57.5C46.4 57.5 43.7 56.5 41.4 54.7C41.5 54.4 41.4 54.4 41.2 54.3ZM27.4 28.4C27.1 33.1 26.9 37.8 26.7 42.6C26.7 43.2 26.4 43.5 25.9 43.7C24.8 44 23.8 44.3 22.8 44.8C22 45.1 21.2 45.4 20.6 46C19.1 47.4 17.4 48.3 15.4 48.6C15 48.6 14.7 48.8 14.7 49.2C14.7 49.7 15.1 49.7 15.5 49.7C17.1 49.7 18.7 49.7 20.2 49.7C21.8 49.7 23.2 50.1 24.5 51C25.3 51.6 26.3 52 27.3 52.1C27.6 52.2 27.9 52.1 28 51.7C28.7 50 29.8 48.6 31.4 47.6C31.7 47.4 31.8 47.2 31.8 46.8C31.8 44.2 31.8 41.6 31.8 39C31.8 38.8 31.8 38.6 31.8 38.4C32.4 38.4 32.9 38.4 33.5 38.4C33.5 38.6 33.5 38.7 33.5 38.9C33.5 41.8 33.5 44.7 33.5 47.5C33.5 48.1 33.3 48.4 32.8 48.7C31 49.6 29.8 51.1 29.2 53C29.1 53.3 28.9 53.6 28.7 53.8C27.6 54.7 26.4 55.6 25.3 56.6C25.1 56.7 25.1 57 25 57.1C25.2 57.2 25.4 57.3 25.6 57.3C27.2 57.1 28.9 57 30.5 56.8C33.8 56.3 36.9 55.1 39.7 53.2C40.4 52.7 40.7 52.2 40.9 51.4C41.4 49.4 41.3 47.3 41.3 45.3C41.3 45 41.3 44.8 41.3 44.5C41.9 44.5 42.4 44.5 43 44.5C43 46.9 43.1 49.3 42.6 51.6C42.3 52.9 42.3 52.9 43.4 53.7C45.1 54.9 47.1 55.5 49.2 55.6C49.4 55.6 49.7 55.5 49.9 55.5C49.7 55.3 49.6 55.2 49.4 55C48.9 54.7 48.4 54.4 47.8 54.2C46.7 53.8 46 52.9 45.5 51.9C44.5 50.1 44.8 48.2 44.8 46.2C45.4 46.2 45.9 46.2 46.5 46.2C46.5 47.1 46.5 48 46.5 48.9C46.5 50 46.9 51 47.5 51.9C47.6 52.1 47.9 52.2 48.1 52.2C51.7 52.3 55.2 53.1 58.5 54.4C58.8 54.5 59.2 54.7 59.6 54.7C59.8 54.7 60 54.6 60.2 54.6C60.1 54.4 60 54.2 59.8 54.1C58.8 53.5 57.9 52.9 56.9 52.4C56.3 52.1 55.9 51.7 55.7 51.1C55 49.5 53.9 48.2 52.4 47.4C50 46 48.7 43.9 47.4 41.5C47.9 41.2 48.3 40.9 48.8 40.6C49.2 41.3 49.7 42 50.1 42.7C50.8 44 51.8 45 53.1 45.8C53.6 46.1 54 46.4 54.4 46.8C55.5 47.7 56.4 48.9 57 50.2C57.9 49.9 58.7 49.5 59.6 49.4C60.9 49.1 62.3 49 63.7 48.8C64 48.8 64.3 48.7 64.3 48.3C64.3 47.9 64.1 47.8 63.7 47.8C63.6 47.8 63.6 47.8 63.5 47.8C61.8 47.6 60.1 47.4 58.3 47.2C57.9 47.1 57.6 46.9 57.4 46.6C56.5 44.7 55 43.5 53 42.9C52.5 42.8 52.3 42.5 52.3 42C52.1 38.7 51.9 35.4 51.8 32.1C51.7 30.9 51.7 29.7 51.6 28.6C49.8 29 48.1 29.4 46.3 29.8C46.3 31.3 46.3 32.8 46.3 34.3C45.7 34.3 45.2 34.3 44.6 34.3C44.6 32.8 44.6 31.3 44.6 29.8C44 29.9 43.5 29.9 42.9 29.9C42.9 33.1 42.9 36.2 42.9 39.4C42.3 39.4 41.8 39.4 41.2 39.4C41.2 36.2 41.2 33.1 41.2 29.9C39.6 29.9 38 29.9 36.4 29.9C36.2 29.9 36 30.1 35.9 30.3C35.1 31.7 34.3 33.1 33.5 34.5C33.3 34.9 33 35.2 32.5 35.1C32 35 31.8 34.7 31.7 34.3C31.3 32.7 30.8 31.2 30.3 29.6C30.2 29.4 30.1 29.2 29.9 29.2C29.1 28.8 28.3 28.6 27.4 28.4ZM27.6 26.3C27.6 26.4 27.6 26.5 27.6 26.6C28.1 26.8 28.5 27 29 27.2C29.8 27.5 30.7 27.7 31.6 27.5C33.2 27.2 34.8 26.9 36.4 26.6C36.9 26.5 37.3 26.5 37.6 26.9C37.9 27.3 37.7 27.7 37.5 28.1C37.5 28.1 37.5 28.2 37.5 28.1C39.5 28.1 41.5 28.2 43.5 28.1C45.8 28 48 27.7 50.2 27.1C50.6 27 51 26.8 51.4 26.6C51.4 26.5 51.4 26.5 51.4 26.4C51 26.2 50.6 26.1 50.2 25.9C48.2 25.3 46.2 25 44.1 24.9C39.7 24.6 35.3 24.6 30.9 25.4C29.8 25.6 28.7 26 27.6 26.3ZM32.1 29.1C32.4 30.1 32.6 31 32.9 32C33.6 30.8 34.2 29.8 34.9 28.6C33.9 28.8 33 28.9 32.1 29.1Z" fill="white"/>
</svg>
