<svg width="80" height="80" viewBox="0 0 80 80" fill="none" xmlns="http://www.w3.org/2000/svg">
<rect width="80" height="80" rx="40" fill="#0C4B36"/>
<path d="M18.0584 33.9C19.6584 33.9 21.1584 33.9 22.8584 33.9C22.8584 34.9 22.8584 35.8 22.8584 36.7C22.9584 40.1 24.1584 43.1 26.9584 45C30.6584 47.6 34.6584 49.7 38.8584 52.3C38.8584 47.6 38.8584 43.4 38.8584 39.2C38.8584 38.8 38.3584 38.3 37.9584 38.1C37.0584 37.5 36.1584 37 35.1584 36.5C28.5584 32.9 25.6584 27.3 26.1584 19.7C27.6584 19.7 29.1584 19.7 30.8584 19.7C30.3584 25.8 32.7584 30.3 38.7584 32.9C38.7584 27.9 38.7584 23 38.7584 18C40.4584 18 41.9584 18 43.5584 18C43.5584 26.9 43.5584 35.8 43.5584 44.8C51.5584 43 55.9584 37.8 56.5584 29.2C58.0584 29.2 59.5584 29.2 61.0584 29.2C62.0584 35.1 59.0584 41.7 53.3584 45.1C50.6584 46.7 47.9584 48.3 45.1584 49.7C43.8584 50.4 43.4584 51.2 43.4584 52.7C43.5584 57.5 43.4584 62.4 43.4584 67.4C41.8584 67.4 40.3584 67.4 38.6584 67.4C38.6584 64.8 38.5584 62.2 38.6584 59.6C38.7584 58.3 38.3584 57.6 37.1584 56.9C33.5584 54.9 30.1584 52.8 26.6584 50.8C20.2584 47 17.5584 41.4 18.0584 33.9Z" fill="white"/>
</svg>
