<svg width="80" height="80" viewBox="0 0 80 80" fill="none" xmlns="http://www.w3.org/2000/svg">
<rect width="80" height="80" rx="40" fill="#0C4B36"/>
<path d="M56.7 40.7C57.7 40.5 58.7 40.1 59.5 39.6C61.9 38.1 63.3 35.9 63.6 33.1C64 29.8 62.9 27.1 60.4 25C60.2 24.8 60.2 24.7 60.3 24.5C61.1 21.5 60.8 18.6 58.8 16.1C56.4 13 52 11.9 48.4 13.5C47 14 45.8 15 44.8 16.3C44.7 16.5 44.5 16.5 44.3 16.5C38.6 15.3 33 18.6 31.4 24.2C31.3 24.5 31.2 24.5 30.9 24.5C27.3 23.9 24.2 24.8 21.6 27.3C20.1 28.7 19.2 30.4 18.8 32.4C17.9 36.5 19.1 39.9 22.3 42.7C22.8 43.1 23.4 43.5 24 43.8C24.7 44.2 25.2 44.8 25.4 45.6C25.5 45.8 25.4 46 25.3 46.1C24.1 47.2 22.9 48.4 21.7 49.5C21.1 50.1 21.1 50.6 21.7 51.2C23.7 53.2 25.6 55.1 27.6 57.1C28.3 57.8 28.8 57.7 29.4 57C30.5 55.8 31.5 54.6 32.6 53.4C32.7 53.2 32.9 53.2 33.1 53.3C35 54 37 54.2 39 54C39.3 54 39.5 54.1 39.6 54.3C42.2 57.4 45.5 58.9 49.5 58.6C54.3 58.2 58.4 54.3 59.1 49.5C59.5 46.5 58.8 43.8 57.1 41.3C57 41.2 57 41.1 56.9 41.1C56.8 40.8 56.8 40.8 56.7 40.7ZM27 43.9C26.8 42.8 25.9 42.4 25.1 41.9C24.9 41.8 24.6 41.6 24.4 41.5C23.6 41 22.7 40.5 22.1 39.7C20.8 38 20.2 36 20.5 33.8C20.9 30.6 22.8 27.8 26.2 26.7C28 26.1 29.8 26.2 31.6 26.7C32.3 26.9 32.8 26.6 33 25.8C33.1 25.2 33.3 24.6 33.5 24C34.9 20.7 37.3 18.7 40.9 18.2C42.1 18 43.3 18.2 44.5 18.5C45.2 18.7 45.5 18.6 45.9 18C46 18 46 17.9 46.1 17.9C47.8 15.4 50.7 14.3 53.5 15.1C55.8 15.7 57.5 17.1 58.4 19.3C59.1 21.1 58.9 22.8 58.3 24.5C58 25.3 58.1 25.6 58.8 26.1C62.4 28.5 62.9 33.4 60 36.6C58.6 38.1 56.8 38.9 54.7 38.9C54.1 38.9 53.8 39.1 53.6 39.6C53.4 40.1 53.6 40.4 53.9 40.8C54.7 41.6 55.4 42.5 55.9 43.5C57.7 46.9 57.2 50.9 54.6 53.6C52.5 55.9 49.8 56.8 46.7 56.3C44.1 55.9 42 54.5 40.5 52.3C40.2 51.8 39.8 51.7 39.2 51.7C38.3 51.8 37.4 51.9 36.5 51.9C35.6 51.9 34.8 51.7 33.9 51.4C34.1 51.2 34.3 51 34.4 50.8C35.2 50 35.9 49 36.9 48.4C39.4 46.7 42.1 45.1 44.7 43.5C46.2 42.6 47.8 41.9 49.1 40.8C49.8 40.2 50.3 39.6 50.5 38.7C50.7 37.5 50.2 36.1 49.2 35.6C48.5 35.2 47.8 35.1 47 35.3C46.4 35.5 45.8 35.7 45.3 36C42.3 37.6 39.3 39.3 36.3 41C36 41.2 35.7 41.3 35.3 41.5C35.3 41.3 35.4 41.2 35.4 41C35.6 40.4 35.7 39.7 35.9 39.1C36.2 37.7 36.6 36.3 36.9 35C37.1 34.1 36.7 33.3 35.9 32.8C35.2 32.4 34.2 32.5 33.6 33.2C33.1 33.7 32.7 34.3 32.4 34.9C31.6 36.4 30.9 37.9 30.3 39.4C29.6 41.1 28.5 42.6 27 43.9ZM35 34.7H35.1C35.1 34.9 35 35.1 35 35.3C34.3 37.9 33.7 40.5 33 43C32.9 43.5 33 43.8 33.4 44.1C33.8 44.4 34.2 44.4 34.6 44.2C37.9 42.4 41.3 40.6 44.6 38.7C45.3 38.3 46 37.9 46.7 37.5C47.3 37.2 47.9 37.4 48.1 37.9C48.4 38.4 48.3 39 47.7 39.3C47.3 39.5 47 39.7 46.6 39.9C44 41.4 41.5 43 38.9 44.5C37.4 45.4 35.9 46.3 34.7 47.7C33 49.5 31.4 51.3 29.8 53.2C29.3 53.7 28.8 54.3 28.3 54.8C26.7 53.2 25.2 51.7 23.5 50C23.6 49.9 23.7 49.8 23.8 49.7C25.3 48.3 26.7 46.9 28.2 45.5C30.1 43.7 31.6 41.7 32.7 39.3C33.3 37.9 34 36.4 34.7 35C34.8 35 34.9 34.9 35 34.7Z" fill="white"/>
<path d="M22.1 66.2C24 66.3 25.8 66.3 27.7 66.4C28.6 66.4 29.1 65.9 28.9 65C28.5 62.9 28.2 60.8999 27.8 58.7999C27.7 58.0999 27.4 57.9 26.7 57.9C25.3 57.9 24 57.8999 22.6 57.7999C21 57.7999 19.4 57.8 17.8 57.7C17.1 57.7 16.7 57.8999 16.6 58.5999C16.1 60.5999 15.7 62.5999 15.2 64.5999C15 65.2999 15.5 65.9 16.2 65.9C18.2 66.1 20.2 66.1 22.1 66.2ZM26.8 64.2999C23.7 64.1999 20.6 64.0999 17.5 64.0999C17.5 63.9999 17.5 64 17.5 63.9C17.8 62.6 18.1 61.3 18.4 60C18.5 59.8 18.6 59.7999 18.8 59.7999C19.6 59.7999 20.4 59.7999 21.1 59.7999C22.6 59.7999 24.2 59.8 25.7 59.9C25.9 59.9 26 59.8999 26.1 60.0999C26.3 61.4999 26.5 62.8999 26.8 64.2999Z" fill="white"/>
</svg>
