<svg width="80" height="80" viewBox="0 0 80 80" fill="none" xmlns="http://www.w3.org/2000/svg">
<rect width="80" height="80" rx="40" fill="#0C4B36"/>
<path d="M46.8 67.2C44.4 66.5 43 64.8 41.8 62.7C37.1 54.5 32.4 46.3 27.7 38.1C27 36.9 27.2 36.5 28.5 36.1C30.4 35.5 32.4 36.3 33.5 38.1C35.3 41.1 37 44.2 38.8 47.3C39 47.6 39.2 47.9 39.4 48.3C40.4 46.6 41.3 45 42.3 43.4C43.3 41.6 44.4 39.8 45.4 38C46.5 36.2 48.5 35.5 50.3 36.1C51.5 36.5 51.7 36.9 51 38C48.3 42.8 45.5 47.5 42.7 52.3C42.3 53 42.2 53.5 42.7 54.2C43.2 54.8 43.5 55.5 43.9 56.2C45.5 55 47.2 54.4 49.2 54.8C52.1 55.4 54.1 57.6 54.3 60.5C54.5 63.3 52.8 65.8 50.1 66.8C49.8 66.9 49.6 67 49.3 67.1C48.5 67.2 47.7 67.2 46.8 67.2ZM29.2 37.5C29.5 38 29.6 38.3 29.9 38.7C31.7 41.9 33.6 45.1 35.5 48.3C38.4 53.3 41.3 58.3 44.2 63.3C45.6 65.7 48.7 66.3 50.9 64.7C53.1 63.1 53.5 60.1 51.8 58C50.1 55.9 47 55.6 44.9 57.5C43.6 58.7 43.5 58.7 42.6 57.1C39.1 51.1 35.6 45.1 32.2 39.1C31.6 38 30.7 37.4 29.2 37.5ZM49.4 37.6C47.9 37.4 47.2 37.8 46.4 39.1C44.6 42.2 42.8 45.4 40.9 48.5C40 50.1 40 50.1 41.2 51.6C44 46.9 46.7 42.3 49.4 37.6Z" fill="white"/>
<path d="M29.2 67.2C28.9 67.1 28.7 67 28.4 66.9C26 66 24.6 64.3 24.3 61.7C24 59.1 25 57 27.2 55.7C29.4 54.3 31.7 54.4 33.9 55.8C34.1 55.9 34.4 56.1 34.6 56.3C34.9 55.8 35.1 55.3 35.5 54.9C35.7 54.7 36.2 54.7 36.6 54.5C36.7 54.9 36.9 55.3 36.8 55.6C36.5 56.4 36 57.1 35.6 57.8C35.1 58.6 34.7 58.6 34 57.9C32.8 56.5 31.2 56 29.4 56.4C27.7 56.8 26.5 57.9 26 59.6C25.3 61.8 26.3 64.2 28.4 65.2C30.5 66.2 33.1 65.6 34.4 63.5C35.4 61.9 36.3 60.2 37.3 58.6C37.6 58.1 37.9 57.6 38.6 58C39.2 58.4 38.9 58.9 38.6 59.4C37.8 60.9 36.9 62.3 36.1 63.8C35.1 65.6 33.6 66.6 31.7 67.2C30.9 67.2 30.1 67.2 29.2 67.2Z" fill="white"/>
<path d="M35.5 29.5C35.5 27.8 35.2 25.9 35.6 24.2C36.4 20.7 37.6 17.2 38.6 13.7C38.7 13.4 39.1 13.1 39.4 13C39.6 13 40 13.3 40.1 13.6C41.2 17.5 42.4 21.5 43.3 25.4C43.6 26.7 43.3 28.2 43.3 29.5C46.3 27.7 49.9 27.5 53.4 26.6C53.7 26.5 54.2 26.7 54.5 27C54.6 27.2 54.5 27.8 54.3 28C52.6 29.9 50.8 31.8 49 33.6C47 35.6 44.4 36.3 41.6 36.4C41.2 36.4 40.8 36.4 40.3 36.5C40.3 38 40.3 39.5 40.3 40.9C40.3 41.5 40.3 42 39.5 42C38.8 42 38.7 41.5 38.7 40.9C38.7 39.5 38.7 38 38.7 36.5C37.4 36.4 36.2 36.3 35 36.1C32.8 35.7 31 34.7 29.4 33.1C27.8 31.5 26.3 29.8 24.8 28.2C24.5 27.9 24.5 27.4 24.4 26.9C24.8 26.8 25.3 26.6 25.6 26.7C27.7 27.1 29.8 27.6 31.9 28.2C33 28.5 34.3 29.1 35.5 29.5ZM39.3 34C39.5 33.7 39.7 33.5 39.8 33.2C41.2 30.6 42.2 27.9 41.7 25C41.2 22.2 40.3 19.5 39.5 16.7C38.5 19.1 37.8 21.4 37.2 23.7C36.3 27.5 37.3 30.8 39.3 34ZM51 28.9C46.4 29 42.1 31.5 40.9 34.8C44.6 35.2 48.9 32.7 51 28.9ZM37.7 34.8C36.4 31.5 32.1 29 27.5 28.9C30.2 32.2 33 35.2 37.7 34.8Z" fill="white"/>
<path d="M27.7 46.8C24.8 46.8 22.4 45.8 20.5 43.6C19.5 42.5 18.4 41.4 17.4 40.3C17.2 40 17.2 39.6 17 39.2C17.4 39.1 17.8 38.8 18.2 38.9C19.9 39.2 21.6 39.7 23.3 40.1C26.3 40.8 28.1 43 29.5 45.6C29.8 46.2 29.5 46.7 28.8 46.8C28.5 46.9 28.1 46.8 27.7 46.8ZM20.4 41.1C22.7 44.2 25.2 45.6 27.4 45.1C25.9 42.2 23.3 41.5 20.4 41.1Z" fill="white"/>
<path d="M50.7 46.8C50.4 46.8 50.1 46.8 49.7 46.8C48.9 46.7 48.6 46.3 48.9 45.6C50.2 43 52 40.9 55 40.1C56.7 39.7 58.5 39.2 60.2 38.9C60.5 38.8 61 39.1 61.3 39.2C61.2 39.6 61.2 40.1 61 40.4C59.8 41.7 58.6 43 57.3 44.3C55.6 46.2 53.3 46.8 50.7 46.8ZM51.2 45.2C54.6 45.4 56.5 43.4 58.4 41.1C55.4 41.5 52.7 42.2 51.2 45.2Z" fill="white"/>
<path d="M50.7 49C53.2 49 55.3 49.8 57 51.8C57.8 52.8 58.8 53.6 59.6 54.6C59.8 54.9 59.8 55.3 59.9 55.7C59.5 55.8 59.1 56.1 58.8 56C57.2 55.7 55.6 55.3 54.1 54.9C51.7 54.2 50.2 52.4 49.1 50.3C48.7 49.6 49 49.1 49.9 49C50.1 49 50.4 49 50.7 49ZM56.7 53.9C55.2 52.1 53.7 50.6 51.1 50.7C52.4 52.8 54.3 53.5 56.7 53.9Z" fill="white"/>
<path d="M28 49C28.3 49 28.6 49 28.8 49C29.6 49.1 29.9 49.6 29.5 50.2C28.3 52.5 26.7 54.3 24 54.9C22.6 55.2 21.2 55.6 19.8 55.9C19.5 56 19 55.9 18.8 55.6C18.7 55.4 18.8 54.8 19.1 54.5C20.1 53.3 21.2 52.2 22.4 51C23.9 49.5 25.9 49 28 49ZM27.5 50.6C24.9 50.5 23.4 51.9 21.9 53.8C24.2 53.5 26.2 52.9 27.5 50.6Z" fill="white"/>
<path d="M33.4 60.9C33.4 62.4 32.2 63.7 30.6 63.8C29 63.8 27.8 62.6 27.7 61.1C27.7 59.5 28.9 58.2 30.5 58.2C32.1 58.1 33.3 59.4 33.4 60.9ZM31.8 61.1C31.8 60.3 31.4 59.8 30.6 59.7C29.8 59.6 29.3 60 29.2 60.8C29.1 61.6 29.6 62.1 30.3 62.2C31.2 62.3 31.6 61.9 31.8 61.1Z" fill="white"/>
<path d="M50.9 60.9C50.9 62.5 49.7 63.7 48.1 63.8C46.5 63.8 45.2 62.6 45.2 61C45.2 59.4 46.5 58.2 48 58.2C49.6 58.1 50.9 59.3 50.9 60.9ZM46.8 60.9C46.8 61.7 47.3 62.2 48 62.2C48.8 62.2 49.3 61.8 49.3 61C49.3 60.2 48.9 59.7 48.1 59.7C47.4 59.7 46.9 60.1 46.8 60.9Z" fill="white"/>
</svg>
